M48
;DRILL file {KiCad 4.0.1-stable} date 2016/09/16 23:05:13
;FORMAT={-:-/ absolute / metric / decimal}
FMAT,2
METRIC,TZ
T1C0.300
T2C0.400
T3C1.000
T4C1.001
%
G90
G05
M71
T1
X79.68Y-87.3
X79.68Y-87.935
X79.68Y-88.57
X79.68Y-89.205
X79.68Y-89.84
X79.68Y-108.255
X79.68Y-113.335
X80.95Y-113.335
X82.22Y-92.38
X82.22Y-93.015
X82.22Y-93.65
X82.22Y-94.285
X82.22Y-113.335
X82.548Y-86.97
X82.855Y-103.81
X82.855Y-105.08
X82.855Y-106.35
X83.49Y-84.76
X83.49Y-85.395
X83.49Y-86.03
X83.49Y-86.665
X83.49Y-87.3
X83.49Y-110.795
X83.49Y-112.065
X83.49Y-114.605
X83.49Y-115.875
X84.125Y-89.84
X84.125Y-90.475
X84.125Y-93.65
X84.125Y-94.285
X84.76Y-82.855
X84.76Y-89.205
X84.76Y-109.525
X84.76Y-115.875
X85.395Y-82.855
X85.395Y-89.205
X86.03Y-82.855
X86.03Y-89.205
X86.03Y-115.875
X86.03Y-118.415
X86.03Y-119.05
X86.03Y-119.685
X86.03Y-120.32
X86.665Y-82.855
X86.665Y-89.205
X87.3Y-115.875
X87.935Y-91.745
X87.935Y-112.065
X88.415Y-106.216
X88.57Y-107.62
X88.57Y-108.255
X88.57Y-108.89
X88.57Y-109.525
X88.57Y-112.7
X88.57Y-113.335
X88.57Y-115.875
X88.739Y-106.939
X88.747Y-97.472
X89.205Y-82.855
X89.205Y-85.395
X89.205Y-86.03
X89.205Y-86.665
X89.52Y-109.724
X89.615Y-107.56
X89.84Y-82.855
X90.475Y-82.855
X91.11Y-82.855
X91.226Y-90.801
X91.745Y-80.95
X92.952Y-114.568
X93.015Y-91.11
X93.015Y-104.445
X93.65Y-91.11
X93.656Y-92.127
X94.285Y-91.11
X94.285Y-104.445
X94.285Y-110.795
X94.285Y-111.43
X94.285Y-112.065
X94.285Y-114.605
X94.92Y-91.11
X94.92Y-113.97
X94.92Y-114.605
X95.105Y-94.591
X95.525Y-87.38
X95.555Y-91.11
X95.555Y-104.445
X95.555Y-113.335
X95.555Y-113.97
X95.555Y-114.605
X95.606Y-109.329
X96.19Y-82.22
X96.19Y-85.395
X96.19Y-110.16
X96.825Y-104.445
X97.46Y-110.16
X98.095Y-104.445
X98.53Y-89.735
X98.73Y-82.855
X98.73Y-84.125
X98.73Y-110.16
X99.365Y-91.11
X99.365Y-91.745
X99.365Y-104.445
X100.Y-82.855
X100.Y-84.125
X100.Y-91.11
X100.Y-91.745
X100.Y-110.16
X100.Y-112.7
X100.Y-113.335
X100.Y-113.97
X100.Y-114.605
X100.635Y-91.11
X100.635Y-91.745
X100.635Y-104.445
X101.27Y-82.855
X101.27Y-84.125
X101.27Y-110.16
X101.905Y-104.445
X102.54Y-110.16
X103.175Y-104.445
X103.175Y-112.7
X103.175Y-113.335
X103.175Y-113.97
X103.175Y-114.605
X103.81Y-110.16
X103.93Y-93.38
X104.445Y-104.445
X104.977Y-90.99
X105.08Y-81.585
X105.08Y-110.16
X105.715Y-91.11
X105.715Y-104.445
X105.715Y-105.715
X105.715Y-106.985
X105.715Y-109.525
X105.715Y-110.16
X105.715Y-110.795
X106.35Y-80.95
X106.35Y-91.745
X106.985Y-91.11
X106.985Y-104.445
X106.985Y-108.89
X106.985Y-109.525
X106.985Y-110.16
X106.985Y-110.795
X107.62Y-113.335
X108.255Y-80.95
X108.255Y-93.015
X108.76Y-95.641
X108.89Y-80.95
X109.525Y-80.95
X110.16Y-80.95
X110.16Y-91.11
X110.343Y-107.508
X110.575Y-105.264
X110.597Y-108.31
X110.598Y-112.706
X110.64Y-109.378
X110.641Y-114.31
X110.795Y-119.05
X111.43Y-91.11
X111.43Y-119.05
X112.065Y-86.03
X112.065Y-87.3
X112.7Y-87.935
X113.335Y-82.855
X113.97Y-82.855
X113.97Y-87.935
X114.073Y-100.915
X114.605Y-82.855
X114.605Y-116.51
X114.605Y-117.78
X114.605Y-119.05
X114.654Y-99.23
X114.673Y-100.265
X115.24Y-82.855
X115.24Y-87.935
X115.875Y-83.49
X115.875Y-101.905
X115.875Y-102.54
X115.875Y-103.175
X115.875Y-103.81
X115.875Y-105.715
X115.875Y-116.51
X116.51Y-84.125
X116.51Y-86.03
X116.51Y-87.935
X116.51Y-110.16
X116.51Y-115.875
X117.145Y-84.76
X117.145Y-112.7
X117.145Y-113.97
X117.145Y-115.24
X117.618Y-87.552
X117.78Y-92.38
X117.78Y-93.015
X117.78Y-93.65
X117.78Y-94.285
X117.78Y-94.92
X117.78Y-95.555
X117.78Y-112.7
X118.01Y-104.964
X118.415Y-100.
X118.415Y-100.635
X118.415Y-112.7
X119.05Y-103.81
X119.05Y-112.7
X119.685Y-103.81
X119.685Y-106.985
X119.685Y-108.255
X119.685Y-112.7
X120.32Y-87.3
X120.32Y-87.935
X120.32Y-88.57
X120.32Y-89.205
X120.32Y-89.84
X120.32Y-93.65
X120.32Y-94.285
X120.32Y-94.92
X120.32Y-97.46
X120.32Y-98.095
T2
X85.957Y-101.794
X89.84Y-118.995
X92.127Y-95.155
X99.92Y-117.31
X111.831Y-95.895
T3
X97.46Y-80.315
X100.Y-80.315
X102.54Y-80.315
T4
X86.03Y-91.11
X86.03Y-93.65
X91.11Y-86.03
X93.65Y-86.03
X106.35Y-86.03
X108.89Y-86.03
X113.97Y-91.11
X113.97Y-93.65
T3
X96.3Y-119.054G85X96.3Y-119.554
G05
X103.7Y-119.054G85X103.7Y-119.554
G05
T0
M30
