G04 #@! TF.FileFunction,Profile,NP*
%FSLAX46Y46*%
G04 Gerber Fmt 4.6, Leading zero omitted, Abs format (unit mm)*
G04 Created by KiCad (PCBNEW 4.0.1-stable) date 2017/04/12 14:46:20*
%MOMM*%
G01*
G04 APERTURE LIST*
%ADD10C,0.100000*%
%ADD11C,0.150000*%
G04 APERTURE END LIST*
D10*
D11*
X87000000Y-114000000D02*
G75*
G03X87000000Y-114000000I-1000000J0D01*
G01*
X115000000Y-114000000D02*
G75*
G03X115000000Y-114000000I-1000000J0D01*
G01*
X115000000Y-86000000D02*
G75*
G03X115000000Y-86000000I-1000000J0D01*
G01*
X87000000Y-86000000D02*
G75*
G03X87000000Y-86000000I-1000000J0D01*
G01*
X115000000Y-121000000D02*
X85000000Y-121000000D01*
X121000000Y-85000000D02*
X121000000Y-115000000D01*
X85000000Y-79000000D02*
X115000000Y-79000000D01*
X79000000Y-115000000D02*
X79000000Y-85000000D01*
X85000000Y-121000000D02*
G75*
G03X79000000Y-115000000I-6000000J0D01*
G01*
X121000000Y-115000000D02*
G75*
G03X115000000Y-121000000I0J-6000000D01*
G01*
X115000000Y-79000000D02*
G75*
G03X121000000Y-85000000I6000000J0D01*
G01*
X79000000Y-85000000D02*
G75*
G03X85000000Y-79000000I0J6000000D01*
G01*
X82916666Y-81250000D02*
G75*
G03X82916666Y-81250000I-1666666J0D01*
G01*
X78750000Y-81250000D02*
X83750000Y-81250000D01*
X81250000Y-78750000D02*
X81250000Y-83750000D01*
X120416666Y-118750000D02*
G75*
G03X120416666Y-118750000I-1666666J0D01*
G01*
X116250000Y-118750000D02*
X121250000Y-118750000D01*
X118750000Y-116250000D02*
X118750000Y-121250000D01*
X82916666Y-118750000D02*
G75*
G03X82916666Y-118750000I-1666666J0D01*
G01*
X78750000Y-118750000D02*
X83750000Y-118750000D01*
X81250000Y-116250000D02*
X81250000Y-121250000D01*
X120416666Y-81250000D02*
G75*
G03X120416666Y-81250000I-1666666J0D01*
G01*
X116250000Y-81250000D02*
X121250000Y-81250000D01*
X118750000Y-78750000D02*
X118750000Y-83750000D01*
M02*
