G04 #@! TF.FileFunction,Legend,Bot*
%FSLAX46Y46*%
G04 Gerber Fmt 4.6, Leading zero omitted, Abs format (unit mm)*
G04 Created by KiCad (PCBNEW 4.0.1-stable) date 2017/04/12 14:46:20*
%MOMM*%
G01*
G04 APERTURE LIST*
%ADD10C,0.100000*%
%ADD11C,0.150000*%
%ADD12R,2.400000X2.400000*%
%ADD13C,2.400000*%
%ADD14O,2.400000X2.400000*%
%ADD15R,1.100000X3.400000*%
%ADD16R,1.450000X1.050000*%
%ADD17C,2.200000*%
%ADD18R,2.432000X2.127200*%
%ADD19O,2.432000X2.127200*%
G04 APERTURE END LIST*
D10*
D11*
X103600000Y-119685000D02*
X103600000Y-115585000D01*
X103600000Y-119685000D02*
X103600000Y-123785000D01*
X103600000Y-123785000D02*
X96400000Y-123785000D01*
X96400000Y-123785000D02*
X96400000Y-115585000D01*
X96400000Y-115585000D02*
X103600000Y-115585000D01*
X110795000Y-120015000D02*
X108695000Y-120015000D01*
X108695000Y-120015000D02*
X108695000Y-116815000D01*
X108695000Y-116815000D02*
X112895000Y-116815000D01*
X112895000Y-116815000D02*
X112895000Y-120015000D01*
X112895000Y-120015000D02*
X110795000Y-120015000D01*
X100738095Y-110612381D02*
X100738095Y-109612381D01*
X100357142Y-109612381D01*
X100261904Y-109660000D01*
X100214285Y-109707619D01*
X100166666Y-109802857D01*
X100166666Y-109945714D01*
X100214285Y-110040952D01*
X100261904Y-110088571D01*
X100357142Y-110136190D01*
X100738095Y-110136190D01*
X99309523Y-109945714D02*
X99309523Y-110612381D01*
X99547619Y-109564762D02*
X99785714Y-110279048D01*
X99166666Y-110279048D01*
X103857143Y-110882381D02*
X103857143Y-111691905D01*
X103809524Y-111787143D01*
X103761905Y-111834762D01*
X103666667Y-111882381D01*
X103476190Y-111882381D01*
X103380952Y-111834762D01*
X103333333Y-111787143D01*
X103285714Y-111691905D01*
X103285714Y-110882381D01*
X102857143Y-111834762D02*
X102714286Y-111882381D01*
X102476190Y-111882381D01*
X102380952Y-111834762D01*
X102333333Y-111787143D01*
X102285714Y-111691905D01*
X102285714Y-111596667D01*
X102333333Y-111501429D01*
X102380952Y-111453810D01*
X102476190Y-111406190D01*
X102666667Y-111358571D01*
X102761905Y-111310952D01*
X102809524Y-111263333D01*
X102857143Y-111168095D01*
X102857143Y-111072857D01*
X102809524Y-110977619D01*
X102761905Y-110930000D01*
X102666667Y-110882381D01*
X102428571Y-110882381D01*
X102285714Y-110930000D01*
X101523809Y-111358571D02*
X101380952Y-111406190D01*
X101333333Y-111453810D01*
X101285714Y-111549048D01*
X101285714Y-111691905D01*
X101333333Y-111787143D01*
X101380952Y-111834762D01*
X101476190Y-111882381D01*
X101857143Y-111882381D01*
X101857143Y-110882381D01*
X101523809Y-110882381D01*
X101428571Y-110930000D01*
X101380952Y-110977619D01*
X101333333Y-111072857D01*
X101333333Y-111168095D01*
X101380952Y-111263333D01*
X101428571Y-111310952D01*
X101523809Y-111358571D01*
X101857143Y-111358571D01*
X101095238Y-111977619D02*
X100333333Y-111977619D01*
X100095238Y-111882381D02*
X100095238Y-110882381D01*
X99714285Y-110882381D01*
X99619047Y-110930000D01*
X99571428Y-110977619D01*
X99523809Y-111072857D01*
X99523809Y-111215714D01*
X99571428Y-111310952D01*
X99619047Y-111358571D01*
X99714285Y-111406190D01*
X100095238Y-111406190D01*
X98952381Y-111882381D02*
X99047619Y-111834762D01*
X99095238Y-111787143D01*
X99142857Y-111691905D01*
X99142857Y-111406190D01*
X99095238Y-111310952D01*
X99047619Y-111263333D01*
X98952381Y-111215714D01*
X98809523Y-111215714D01*
X98714285Y-111263333D01*
X98666666Y-111310952D01*
X98619047Y-111406190D01*
X98619047Y-111691905D01*
X98666666Y-111787143D01*
X98714285Y-111834762D01*
X98809523Y-111882381D01*
X98952381Y-111882381D01*
X98285714Y-111215714D02*
X98095238Y-111882381D01*
X97904761Y-111406190D01*
X97714285Y-111882381D01*
X97523809Y-111215714D01*
X96761904Y-111834762D02*
X96857142Y-111882381D01*
X97047619Y-111882381D01*
X97142857Y-111834762D01*
X97190476Y-111739524D01*
X97190476Y-111358571D01*
X97142857Y-111263333D01*
X97047619Y-111215714D01*
X96857142Y-111215714D01*
X96761904Y-111263333D01*
X96714285Y-111358571D01*
X96714285Y-111453810D01*
X97190476Y-111549048D01*
X96285714Y-111882381D02*
X96285714Y-111215714D01*
X96285714Y-111406190D02*
X96238095Y-111310952D01*
X96190476Y-111263333D01*
X96095238Y-111215714D01*
X95999999Y-111215714D01*
X107683333Y-118819762D02*
X107540476Y-118867381D01*
X107302380Y-118867381D01*
X107207142Y-118819762D01*
X107159523Y-118772143D01*
X107111904Y-118676905D01*
X107111904Y-118581667D01*
X107159523Y-118486429D01*
X107207142Y-118438810D01*
X107302380Y-118391190D01*
X107492857Y-118343571D01*
X107588095Y-118295952D01*
X107635714Y-118248333D01*
X107683333Y-118153095D01*
X107683333Y-118057857D01*
X107635714Y-117962619D01*
X107588095Y-117915000D01*
X107492857Y-117867381D01*
X107254761Y-117867381D01*
X107111904Y-117915000D01*
X106778571Y-117867381D02*
X106540476Y-118867381D01*
X106349999Y-118153095D01*
X106159523Y-118867381D01*
X105921428Y-117867381D01*
X105016666Y-118867381D02*
X105588095Y-118867381D01*
X105302381Y-118867381D02*
X105302381Y-117867381D01*
X105397619Y-118010238D01*
X105492857Y-118105476D01*
X105588095Y-118153095D01*
X111786904Y-115803571D02*
X111644047Y-115851190D01*
X111596428Y-115898810D01*
X111548809Y-115994048D01*
X111548809Y-116136905D01*
X111596428Y-116232143D01*
X111644047Y-116279762D01*
X111739285Y-116327381D01*
X112120238Y-116327381D01*
X112120238Y-115327381D01*
X111786904Y-115327381D01*
X111691666Y-115375000D01*
X111644047Y-115422619D01*
X111596428Y-115517857D01*
X111596428Y-115613095D01*
X111644047Y-115708333D01*
X111691666Y-115755952D01*
X111786904Y-115803571D01*
X112120238Y-115803571D01*
X111120238Y-115327381D02*
X111120238Y-116136905D01*
X111072619Y-116232143D01*
X111025000Y-116279762D01*
X110929762Y-116327381D01*
X110739285Y-116327381D01*
X110644047Y-116279762D01*
X110596428Y-116232143D01*
X110548809Y-116136905D01*
X110548809Y-115327381D01*
X110215476Y-115327381D02*
X109644047Y-115327381D01*
X109929762Y-116327381D02*
X109929762Y-115327381D01*
X109453571Y-115327381D02*
X108882142Y-115327381D01*
X109167857Y-116327381D02*
X109167857Y-115327381D01*
X108358333Y-115327381D02*
X108167856Y-115327381D01*
X108072618Y-115375000D01*
X107977380Y-115470238D01*
X107929761Y-115660714D01*
X107929761Y-115994048D01*
X107977380Y-116184524D01*
X108072618Y-116279762D01*
X108167856Y-116327381D01*
X108358333Y-116327381D01*
X108453571Y-116279762D01*
X108548809Y-116184524D01*
X108596428Y-115994048D01*
X108596428Y-115660714D01*
X108548809Y-115470238D01*
X108453571Y-115375000D01*
X108358333Y-115327381D01*
X107501190Y-116327381D02*
X107501190Y-115327381D01*
X106929761Y-116327381D01*
X106929761Y-115327381D01*
%LPC*%
D12*
X113970000Y-91110000D03*
D13*
X113970000Y-93650000D03*
D12*
X86030000Y-91110000D03*
D13*
X86030000Y-93650000D03*
D12*
X106350000Y-86030000D03*
D13*
X108890000Y-86030000D03*
D12*
X93650000Y-86030000D03*
D13*
X91110000Y-86030000D03*
D14*
X96300000Y-119685000D03*
X103700000Y-119685000D03*
D15*
X98800000Y-113685000D03*
X101200000Y-113685000D03*
D16*
X112870000Y-117340000D03*
X108720000Y-117340000D03*
X108720000Y-119490000D03*
X112870000Y-119490000D03*
D17*
X102540000Y-80315000D03*
X100000000Y-80315000D03*
X97460000Y-80315000D03*
D18*
X118000000Y-103000000D03*
D19*
X118000000Y-105540000D03*
X118000000Y-108080000D03*
X118000000Y-110620000D03*
M02*
