G04 #@! TF.FileFunction,Copper,L2,Bot,Signal*
%FSLAX46Y46*%
G04 Gerber Fmt 4.6, Leading zero omitted, Abs format (unit mm)*
G04 Created by KiCad (PCBNEW 4.0.1-stable) date 2016/09/16 23:01:40*
%MOMM*%
G01*
G04 APERTURE LIST*
%ADD10C,0.100000*%
%ADD11C,1.800000*%
%ADD12R,2.000000X2.000000*%
%ADD13C,2.000000*%
%ADD14R,1.050000X0.650000*%
%ADD15O,2.000000X3.000000*%
%ADD16R,0.700000X3.000000*%
%ADD17C,0.500000*%
%ADD18C,0.600000*%
%ADD19C,0.300000*%
%ADD20C,0.500000*%
%ADD21C,0.254000*%
G04 APERTURE END LIST*
D10*
D11*
X102540000Y-80315000D03*
X100000000Y-80315000D03*
X97460000Y-80315000D03*
D12*
X113970000Y-91110000D03*
D13*
X113970000Y-93650000D03*
D12*
X86030000Y-91110000D03*
D13*
X86030000Y-93650000D03*
D12*
X106350000Y-86030000D03*
D13*
X108890000Y-86030000D03*
D12*
X93650000Y-86030000D03*
D13*
X91110000Y-86030000D03*
D14*
X112870000Y-117340000D03*
X108720000Y-117340000D03*
X108720000Y-119490000D03*
X112870000Y-119490000D03*
D15*
X96300000Y-119304000D03*
X103700000Y-119304000D03*
D16*
X98800000Y-113304000D03*
X101200000Y-113304000D03*
D17*
X117145000Y-113970000D03*
X117145000Y-115240000D03*
X116510000Y-115875000D03*
X115875000Y-116510000D03*
X114605000Y-116510000D03*
X114605000Y-117780000D03*
X114605000Y-119050000D03*
X111430000Y-119050000D03*
X110795000Y-119050000D03*
X120320000Y-89840000D03*
X120320000Y-89205000D03*
X120320000Y-88570000D03*
X120320000Y-87935000D03*
X120320000Y-87300000D03*
X108255000Y-80950000D03*
X108890000Y-80950000D03*
X109525000Y-80950000D03*
X110160000Y-80950000D03*
X112065000Y-86030000D03*
X112065000Y-87300000D03*
X112700000Y-87935000D03*
X113970000Y-87935000D03*
X115240000Y-87935000D03*
X116510000Y-87935000D03*
X116510000Y-86030000D03*
X117145000Y-84760000D03*
X116510000Y-84125000D03*
X115875000Y-83490000D03*
X115240000Y-82855000D03*
X114605000Y-82855000D03*
X113970000Y-82855000D03*
X113335000Y-82855000D03*
X96190000Y-110160000D03*
X97460000Y-110160000D03*
X98730000Y-110160000D03*
X100000000Y-110160000D03*
X101270000Y-110160000D03*
X102540000Y-110160000D03*
X103810000Y-110160000D03*
X105080000Y-110160000D03*
X105715000Y-109525000D03*
X105715000Y-110160000D03*
X106985000Y-108890000D03*
X106985000Y-109525000D03*
X106985000Y-110160000D03*
X106985000Y-110795000D03*
X105715000Y-110795000D03*
X79680000Y-89840000D03*
X79680000Y-89205000D03*
X79680000Y-88570000D03*
X79680000Y-87935000D03*
X79680000Y-87300000D03*
X86030000Y-120320000D03*
X86030000Y-119685000D03*
X86030000Y-119050000D03*
X86030000Y-118415000D03*
X84125000Y-90475000D03*
X84125000Y-89840000D03*
X84760000Y-89205000D03*
X85395000Y-89205000D03*
X86030000Y-89205000D03*
X86665000Y-89205000D03*
X87935000Y-91745000D03*
X100000000Y-91110000D03*
X100000000Y-91745000D03*
X99365000Y-91745000D03*
X99365000Y-91110000D03*
X100635000Y-91110000D03*
X100635000Y-91745000D03*
X93015000Y-91110000D03*
X93650000Y-91110000D03*
X94285000Y-91110000D03*
X94920000Y-91110000D03*
X95555000Y-91110000D03*
X106350000Y-91745000D03*
X108255000Y-93015000D03*
X111430000Y-91110000D03*
X110160000Y-91110000D03*
X115875000Y-101905000D03*
X115875000Y-102540000D03*
X115875000Y-103175000D03*
X115875000Y-103810000D03*
X115875000Y-105715000D03*
X107620000Y-113335000D03*
X103175000Y-112700000D03*
X103175000Y-113335000D03*
X103175000Y-113970000D03*
X103175000Y-114605000D03*
X100000000Y-114605000D03*
X100000000Y-113970000D03*
X100000000Y-112700000D03*
X100000000Y-113335000D03*
X94285000Y-110795000D03*
X94285000Y-111430000D03*
X94285000Y-112065000D03*
X94920000Y-113970000D03*
X94285000Y-114605000D03*
X94920000Y-114605000D03*
X95555000Y-114605000D03*
X95555000Y-113970000D03*
X95555000Y-113335000D03*
X87935000Y-112065000D03*
X83490000Y-112065000D03*
X83490000Y-110795000D03*
X84760000Y-109525000D03*
X82220000Y-93015000D03*
X82220000Y-93650000D03*
X82220000Y-94285000D03*
X84125000Y-93650000D03*
X84125000Y-94285000D03*
X82220000Y-92380000D03*
X86665000Y-82855000D03*
X86030000Y-82855000D03*
X85395000Y-82855000D03*
X84760000Y-82855000D03*
X83490000Y-87300000D03*
X83490000Y-86665000D03*
X83490000Y-86030000D03*
X83490000Y-85395000D03*
X83490000Y-84760000D03*
X96190000Y-85395000D03*
X96190000Y-82220000D03*
X89205000Y-85395000D03*
X89205000Y-86030000D03*
X89205000Y-86665000D03*
X91745000Y-80950000D03*
X89205000Y-82855000D03*
X89840000Y-82855000D03*
X91110000Y-82855000D03*
X90475000Y-82855000D03*
X100000000Y-82855000D03*
X98730000Y-82855000D03*
X98730000Y-84125000D03*
X100000000Y-84125000D03*
X101270000Y-84125000D03*
X101270000Y-82855000D03*
X106350000Y-80950000D03*
X105080000Y-81585000D03*
X120320000Y-98095000D03*
X120320000Y-97460000D03*
X120320000Y-94920000D03*
X120320000Y-94285000D03*
X120320000Y-93650000D03*
X117780000Y-95555000D03*
X117780000Y-94920000D03*
X117780000Y-94285000D03*
X117780000Y-93650000D03*
X117780000Y-93015000D03*
X117780000Y-92380000D03*
X119685000Y-108255000D03*
X119685000Y-106985000D03*
X119050000Y-103810000D03*
X119685000Y-103810000D03*
X118415000Y-100000000D03*
X118415000Y-100635000D03*
X116510000Y-110160000D03*
X119685000Y-112700000D03*
X119050000Y-112700000D03*
X118415000Y-112700000D03*
X117780000Y-112700000D03*
X117145000Y-112700000D03*
X106985000Y-104445000D03*
X93015000Y-104445000D03*
X94285000Y-104445000D03*
X95555000Y-104445000D03*
X96825000Y-104445000D03*
X98095000Y-104445000D03*
X99365000Y-104445000D03*
X100635000Y-104445000D03*
X101905000Y-104445000D03*
X103175000Y-104445000D03*
X104445000Y-104445000D03*
X105715000Y-104445000D03*
X105715000Y-105715000D03*
X105715000Y-106985000D03*
X88570000Y-107620000D03*
X88570000Y-108255000D03*
X88570000Y-108890000D03*
X88570000Y-109525000D03*
X83490000Y-114605000D03*
X83490000Y-115875000D03*
X84760000Y-115875000D03*
X86030000Y-115875000D03*
X87300000Y-115875000D03*
X88570000Y-115875000D03*
X88570000Y-112700000D03*
X88570000Y-113335000D03*
X79680000Y-113335000D03*
X80950000Y-113335000D03*
X82220000Y-113335000D03*
X79680000Y-108255000D03*
X82855000Y-106350000D03*
X82855000Y-105080000D03*
X82855000Y-103810000D03*
X98529600Y-89734800D03*
X88747000Y-97472000D03*
D18*
X85956800Y-101794200D03*
X89840000Y-118994700D03*
X111831000Y-95895100D03*
X92127000Y-95155500D03*
D17*
X117618400Y-87551600D03*
X95524600Y-87380300D03*
X88738600Y-106938900D03*
X91225600Y-90800600D03*
X110597000Y-108310000D03*
X92952200Y-114568300D03*
X95105400Y-94590700D03*
X106985000Y-91110000D03*
X105715000Y-91110000D03*
X104976700Y-90990200D03*
X89615200Y-107560000D03*
X103930100Y-93380300D03*
X89520000Y-109723800D03*
X108760300Y-95641200D03*
X95606000Y-109328900D03*
X114673500Y-100265000D03*
X110640600Y-114310000D03*
X114073200Y-100914800D03*
X110597900Y-112706400D03*
X110640300Y-109378200D03*
X88415500Y-106215900D03*
X93656400Y-92127500D03*
X110343000Y-107507700D03*
X110574900Y-105263900D03*
D18*
X99919700Y-117310000D03*
D17*
X82548300Y-86970300D03*
X118010500Y-104964400D03*
X114653700Y-99229600D03*
D19*
X116510000Y-115875000D02*
X117145000Y-115240000D01*
X114605000Y-116510000D02*
X115875000Y-116510000D01*
X114605000Y-119050000D02*
X114605000Y-117780000D01*
X110795000Y-119050000D02*
X111430000Y-119050000D01*
X117145000Y-84760000D02*
X117780000Y-84760000D01*
X120320000Y-89205000D02*
X120320000Y-89840000D01*
X120320000Y-87935000D02*
X120320000Y-88570000D01*
X117780000Y-84760000D02*
X120320000Y-87300000D01*
X110160000Y-80950000D02*
X112065000Y-80950000D01*
X108255000Y-80950000D02*
X108890000Y-80950000D01*
X109525000Y-80950000D02*
X110160000Y-80950000D01*
X112700000Y-87935000D02*
X112065000Y-87300000D01*
X115240000Y-87935000D02*
X113970000Y-87935000D01*
X116510000Y-86030000D02*
X116510000Y-87935000D01*
X116510000Y-84125000D02*
X117145000Y-84760000D01*
X115240000Y-82855000D02*
X115875000Y-83490000D01*
X113970000Y-82855000D02*
X114605000Y-82855000D01*
X113335000Y-82220000D02*
X113335000Y-82855000D01*
X112065000Y-80950000D02*
X113335000Y-82220000D01*
X105715000Y-110160000D02*
X105080000Y-110160000D01*
X105080000Y-109525000D02*
X104445000Y-110160000D01*
X104445000Y-110160000D02*
X96190000Y-110160000D01*
X97460000Y-110160000D02*
X98730000Y-110160000D01*
X100000000Y-110160000D02*
X101270000Y-110160000D01*
X102540000Y-110160000D02*
X103810000Y-110160000D01*
X105080000Y-109525000D02*
X105715000Y-109525000D01*
X106985000Y-110160000D02*
X106985000Y-109525000D01*
X105715000Y-110795000D02*
X106985000Y-110795000D01*
X80950000Y-87300000D02*
X79680000Y-87300000D01*
X79680000Y-89205000D02*
X79680000Y-89840000D01*
X79680000Y-87935000D02*
X79680000Y-88570000D01*
X86030000Y-115875000D02*
X86030000Y-118415000D01*
X86030000Y-119050000D02*
X86030000Y-119685000D01*
X84125000Y-90475000D02*
X84125000Y-89840000D01*
X84760000Y-89205000D02*
X85395000Y-89205000D01*
X86030000Y-89205000D02*
X86665000Y-89205000D01*
X100000000Y-91745000D02*
X100635000Y-91745000D01*
X100000000Y-91110000D02*
X100000000Y-91745000D01*
X100635000Y-91110000D02*
X99365000Y-91110000D01*
X94285000Y-91110000D02*
X93650000Y-91110000D01*
X95555000Y-91110000D02*
X94920000Y-91110000D01*
X106985000Y-91745000D02*
X106350000Y-91745000D01*
X108255000Y-93015000D02*
X106985000Y-91745000D01*
X119685000Y-105715000D02*
X115875000Y-105715000D01*
X115875000Y-102540000D02*
X115875000Y-101905000D01*
X115875000Y-103810000D02*
X115875000Y-103175000D01*
X103175000Y-113335000D02*
X103175000Y-112700000D01*
X103175000Y-114605000D02*
X103175000Y-113970000D01*
X98800000Y-113304000D02*
X99969000Y-113304000D01*
X100000000Y-112700000D02*
X100000000Y-113970000D01*
X99969000Y-113304000D02*
X100000000Y-113335000D01*
X94285000Y-111430000D02*
X94285000Y-112065000D01*
X92325500Y-110795000D02*
X94285000Y-110795000D01*
X94285000Y-114605000D02*
X94920000Y-113970000D01*
X95555000Y-114605000D02*
X94920000Y-114605000D01*
X95555000Y-113335000D02*
X95555000Y-113970000D01*
X84760000Y-109525000D02*
X83490000Y-110795000D01*
X83490000Y-112065000D02*
X83490000Y-110795000D01*
X82220000Y-94285000D02*
X84125000Y-94285000D01*
X82220000Y-93015000D02*
X82220000Y-93650000D01*
X83490000Y-86030000D02*
X80950000Y-86030000D01*
X82220000Y-91110000D02*
X82220000Y-92380000D01*
X80950000Y-89840000D02*
X82220000Y-91110000D01*
X80950000Y-86030000D02*
X80950000Y-87300000D01*
X80950000Y-87300000D02*
X80950000Y-89840000D01*
X84760000Y-82855000D02*
X84760000Y-83490000D01*
X86030000Y-82855000D02*
X85395000Y-82855000D01*
X89205000Y-82855000D02*
X86665000Y-82855000D01*
X83490000Y-86665000D02*
X83490000Y-87300000D01*
X83490000Y-85395000D02*
X83490000Y-86030000D01*
X84760000Y-83490000D02*
X83490000Y-84760000D01*
X96190000Y-82220000D02*
X96190000Y-85395000D01*
X89205000Y-82855000D02*
X89205000Y-86665000D01*
X89205000Y-86030000D02*
X89205000Y-85395000D01*
X91745000Y-80950000D02*
X89840000Y-82855000D01*
X89840000Y-82855000D02*
X89205000Y-82855000D01*
X89840000Y-82855000D02*
X90475000Y-82855000D01*
X98730000Y-82855000D02*
X100000000Y-82855000D01*
X100000000Y-84125000D02*
X98730000Y-84125000D01*
X101270000Y-82855000D02*
X101270000Y-84125000D01*
X105715000Y-80950000D02*
X106350000Y-80950000D01*
X105080000Y-81585000D02*
X105715000Y-80950000D01*
X120320000Y-93650000D02*
X119050000Y-93650000D01*
X120320000Y-98730000D02*
X120320000Y-98095000D01*
X120320000Y-97460000D02*
X120320000Y-94920000D01*
X120320000Y-94285000D02*
X120320000Y-93650000D01*
X118415000Y-100635000D02*
X120320000Y-98730000D01*
X117780000Y-94285000D02*
X117780000Y-94920000D01*
X117780000Y-93015000D02*
X117780000Y-93650000D01*
X119050000Y-93650000D02*
X117780000Y-92380000D01*
X119685000Y-106985000D02*
X119685000Y-105715000D01*
X119685000Y-105715000D02*
X119685000Y-103810000D01*
X119685000Y-108255000D02*
X119685000Y-106985000D01*
X119050000Y-101270000D02*
X118415000Y-100635000D01*
X119050000Y-103810000D02*
X119050000Y-101270000D01*
X118415000Y-100635000D02*
X118415000Y-100000000D01*
X118415000Y-112700000D02*
X119050000Y-112700000D01*
X117145000Y-112700000D02*
X117780000Y-112700000D01*
X95555000Y-104445000D02*
X94285000Y-104445000D01*
X98095000Y-104445000D02*
X96825000Y-104445000D01*
X100635000Y-104445000D02*
X99365000Y-104445000D01*
X103175000Y-104445000D02*
X101905000Y-104445000D01*
X105715000Y-104445000D02*
X104445000Y-104445000D01*
X105715000Y-106985000D02*
X105715000Y-105715000D01*
X92325500Y-111430000D02*
X89840000Y-111430000D01*
X88570000Y-108890000D02*
X88570000Y-108255000D01*
X88570000Y-110160000D02*
X88570000Y-109525000D01*
X89840000Y-111430000D02*
X88570000Y-110160000D01*
X88570000Y-115875000D02*
X88570000Y-113335000D01*
X83490000Y-114605000D02*
X83490000Y-115875000D01*
X84760000Y-115875000D02*
X86030000Y-115875000D01*
X87300000Y-115875000D02*
X88570000Y-115875000D01*
X80950000Y-113335000D02*
X82220000Y-113335000D01*
X79680000Y-108255000D02*
X79680000Y-113335000D01*
X82855000Y-103810000D02*
X82855000Y-105080000D01*
X98529600Y-81785400D02*
X98529600Y-89734800D01*
X100000000Y-80315000D02*
X98529600Y-81785400D01*
X98599400Y-115154300D02*
X96300000Y-117453700D01*
X98800000Y-115154300D02*
X98599400Y-115154300D01*
X98800000Y-113304000D02*
X98800000Y-115154300D01*
X96300000Y-119304000D02*
X96300000Y-118857600D01*
X96300000Y-118857600D02*
X96300000Y-117453700D01*
X107731000Y-117453700D02*
X107844700Y-117340000D01*
X103700000Y-117453700D02*
X107731000Y-117453700D01*
X103700000Y-119304000D02*
X103700000Y-117453700D01*
X108720000Y-117340000D02*
X107844700Y-117340000D01*
X88747000Y-103929500D02*
X88747000Y-97472000D01*
X92325500Y-107508000D02*
X88747000Y-103929500D01*
X92325500Y-114883100D02*
X92325500Y-111430000D01*
X92325500Y-111430000D02*
X92325500Y-110795000D01*
X92325500Y-110795000D02*
X92325500Y-107508000D01*
X96300000Y-118857600D02*
X92325500Y-114883100D01*
D20*
X89840000Y-112363400D02*
X89840000Y-118994700D01*
X85956800Y-108480200D02*
X89840000Y-112363400D01*
X85956800Y-101794200D02*
X85956800Y-108480200D01*
X92273000Y-95301500D02*
X92127000Y-95155500D01*
X95701900Y-95301500D02*
X92273000Y-95301500D01*
X96062600Y-94940800D02*
X95701900Y-95301500D01*
X110876700Y-94940800D02*
X96062600Y-94940800D01*
X111831000Y-95895100D02*
X110876700Y-94940800D01*
D19*
X112619700Y-89759700D02*
X112619700Y-91110000D01*
X108890000Y-86030000D02*
X112619700Y-89759700D01*
X113970000Y-91110000D02*
X112619700Y-91110000D01*
X117618400Y-90001600D02*
X117618400Y-87551600D01*
X113970000Y-93650000D02*
X117618400Y-90001600D01*
X87380300Y-89759700D02*
X87380300Y-91110000D01*
X91110000Y-86030000D02*
X87380300Y-89759700D01*
X86030000Y-91110000D02*
X87380300Y-91110000D01*
X88289600Y-106938900D02*
X88738600Y-106938900D01*
X86607200Y-105256500D02*
X88289600Y-106938900D01*
X86607200Y-95335300D02*
X86607200Y-105256500D01*
X87482700Y-94459800D02*
X86607200Y-95335300D01*
X87482700Y-93682400D02*
X87482700Y-94459800D01*
X93784700Y-87380400D02*
X87482700Y-93682400D01*
X95524600Y-87380400D02*
X93784700Y-87380400D01*
X95524600Y-87380300D02*
X95524600Y-87380400D01*
X91659100Y-90367100D02*
X91225600Y-90800600D01*
X107222700Y-90367100D02*
X91659100Y-90367100D01*
X112512900Y-95657300D02*
X107222700Y-90367100D01*
X112512900Y-106394100D02*
X112512900Y-95657300D01*
X110597000Y-108310000D02*
X112512900Y-106394100D01*
X108720000Y-119490000D02*
X109595300Y-119490000D01*
X104185400Y-111453600D02*
X96066900Y-111453600D01*
X109595300Y-116863500D02*
X104185400Y-111453600D01*
X109595300Y-119490000D02*
X109595300Y-116863500D01*
X96066900Y-111453600D02*
X92952200Y-114568300D01*
X95005700Y-110392400D02*
X96066900Y-111453600D01*
X95005700Y-109397900D02*
X95005700Y-110392400D01*
X89489600Y-103881800D02*
X95005700Y-109397900D01*
X89489600Y-95990600D02*
X89489600Y-103881800D01*
X90975000Y-94505200D02*
X89489600Y-95990600D01*
X95019900Y-94505200D02*
X90975000Y-94505200D01*
X95105400Y-94590700D02*
X95019900Y-94505200D01*
X104976700Y-90990200D02*
X105595200Y-90990200D01*
X105595200Y-90990200D02*
X105715000Y-91110000D01*
X103239000Y-92727900D02*
X104976700Y-90990200D01*
X91293300Y-92727900D02*
X103239000Y-92727900D01*
X87607800Y-96413400D02*
X91293300Y-92727900D01*
X87607800Y-104559000D02*
X87607800Y-96413400D01*
X89615200Y-106566400D02*
X87607800Y-104559000D01*
X89615200Y-107560000D02*
X89615200Y-106566400D01*
X90252700Y-108991100D02*
X89520000Y-109723800D01*
X90252700Y-106415600D02*
X90252700Y-108991100D01*
X88108100Y-104271000D02*
X90252700Y-106415600D01*
X88108100Y-96620600D02*
X88108100Y-104271000D01*
X91348400Y-93380300D02*
X88108100Y-96620600D01*
X103930100Y-93380300D02*
X91348400Y-93380300D01*
X110123600Y-95641200D02*
X108760300Y-95641200D01*
X110528100Y-96045700D02*
X110123600Y-95641200D01*
X110528100Y-103308900D02*
X110528100Y-96045700D01*
X104508100Y-109328900D02*
X110528100Y-103308900D01*
X95606000Y-109328900D02*
X104508100Y-109328900D01*
X114673500Y-110277100D02*
X114673500Y-100265000D01*
X110640600Y-114310000D02*
X114673500Y-110277100D01*
X114073200Y-109231100D02*
X114073200Y-100914800D01*
X110597900Y-112706400D02*
X114073200Y-109231100D01*
X102540000Y-84976900D02*
X102540000Y-80315000D01*
X113013200Y-95450100D02*
X102540000Y-84976900D01*
X113013200Y-107005300D02*
X113013200Y-95450100D01*
X110640300Y-109378200D02*
X113013200Y-107005300D01*
X87107500Y-104907900D02*
X88415500Y-106215900D01*
X87107500Y-96206200D02*
X87107500Y-104907900D01*
X91186200Y-92127500D02*
X87107500Y-96206200D01*
X93656400Y-92127500D02*
X91186200Y-92127500D01*
X110343000Y-105495800D02*
X110574900Y-105263900D01*
X110343000Y-107507700D02*
X110343000Y-105495800D01*
D20*
X101200000Y-116029700D02*
X99919700Y-117310000D01*
X101200000Y-113304000D02*
X101200000Y-116029700D01*
D19*
X82548300Y-90168300D02*
X82548300Y-86970300D01*
X86030000Y-93650000D02*
X82548300Y-90168300D01*
X118010500Y-102586400D02*
X114653700Y-99229600D01*
X118010500Y-104964400D02*
X118010500Y-102586400D01*
D21*
G36*
X96420407Y-79619053D02*
X96233214Y-80069864D01*
X96232788Y-80557995D01*
X96419194Y-81009131D01*
X96764053Y-81354593D01*
X97214864Y-81541786D01*
X97702995Y-81542212D01*
X98058889Y-81395159D01*
X99099446Y-81395159D01*
X99185852Y-81651643D01*
X99759336Y-81861458D01*
X100369460Y-81835839D01*
X100814148Y-81651643D01*
X100900554Y-81395159D01*
X100000000Y-80494605D01*
X99099446Y-81395159D01*
X98058889Y-81395159D01*
X98154131Y-81355806D01*
X98499593Y-81010947D01*
X98557065Y-80872538D01*
X98663357Y-81129148D01*
X98919841Y-81215554D01*
X99820395Y-80315000D01*
X99806253Y-80300858D01*
X99985858Y-80121253D01*
X100000000Y-80135395D01*
X100014143Y-80121253D01*
X100193748Y-80300858D01*
X100179605Y-80315000D01*
X101080159Y-81215554D01*
X101336643Y-81129148D01*
X101436269Y-80856841D01*
X101499194Y-81009131D01*
X101844053Y-81354593D01*
X102063000Y-81445508D01*
X102063000Y-84976900D01*
X102099309Y-85159440D01*
X102202710Y-85314190D01*
X106778620Y-89890100D01*
X91949580Y-89890100D01*
X93982280Y-87857400D01*
X95185579Y-87857400D01*
X95197329Y-87869171D01*
X95409324Y-87957200D01*
X95638869Y-87957400D01*
X95851017Y-87869742D01*
X96013471Y-87707571D01*
X96101500Y-87495576D01*
X96101700Y-87266031D01*
X96014042Y-87053883D01*
X95851871Y-86891429D01*
X95639876Y-86803400D01*
X95410331Y-86803200D01*
X95198183Y-86890858D01*
X95185619Y-86903400D01*
X94983406Y-86903400D01*
X94983406Y-85030000D01*
X94960605Y-84908821D01*
X94888988Y-84797526D01*
X94779714Y-84722862D01*
X94650000Y-84696594D01*
X92650000Y-84696594D01*
X92528821Y-84719395D01*
X92417526Y-84791012D01*
X92342862Y-84900286D01*
X92316594Y-85030000D01*
X92316594Y-85475243D01*
X92235631Y-85279297D01*
X91862666Y-84905681D01*
X91375115Y-84703231D01*
X90847202Y-84702771D01*
X90359297Y-84904369D01*
X89985681Y-85277334D01*
X89783231Y-85764885D01*
X89782771Y-86292798D01*
X89896756Y-86568664D01*
X87043010Y-89422410D01*
X86939609Y-89577160D01*
X86903300Y-89759700D01*
X86903300Y-89776594D01*
X85030000Y-89776594D01*
X84908821Y-89799395D01*
X84797526Y-89871012D01*
X84722862Y-89980286D01*
X84696594Y-90110000D01*
X84696594Y-91642014D01*
X83025300Y-89970720D01*
X83025300Y-87309421D01*
X83037171Y-87297571D01*
X83125200Y-87085576D01*
X83125400Y-86856031D01*
X83037742Y-86643883D01*
X82875571Y-86481429D01*
X82663576Y-86393400D01*
X82434031Y-86393200D01*
X82221883Y-86480858D01*
X82059429Y-86643029D01*
X81971400Y-86855024D01*
X81971200Y-87084569D01*
X82058858Y-87296717D01*
X82071300Y-87309181D01*
X82071300Y-90168300D01*
X82107609Y-90350840D01*
X82211010Y-90505590D01*
X84816801Y-93111381D01*
X84703231Y-93384885D01*
X84702771Y-93912798D01*
X84904369Y-94400703D01*
X85277334Y-94774319D01*
X85764885Y-94976769D01*
X86290693Y-94977227D01*
X86269910Y-94998010D01*
X86166509Y-95152760D01*
X86130200Y-95335300D01*
X86130200Y-101187296D01*
X86082065Y-101167309D01*
X85832629Y-101167091D01*
X85602097Y-101262345D01*
X85425565Y-101438569D01*
X85329909Y-101668935D01*
X85329691Y-101918371D01*
X85379800Y-102039644D01*
X85379800Y-108480195D01*
X85379799Y-108480200D01*
X85423722Y-108701008D01*
X85548799Y-108888201D01*
X89263000Y-112602402D01*
X89263000Y-118749284D01*
X89213109Y-118869435D01*
X89212891Y-119118871D01*
X89308145Y-119349403D01*
X89484369Y-119525935D01*
X89714735Y-119621591D01*
X89964171Y-119621809D01*
X90194703Y-119526555D01*
X90371235Y-119350331D01*
X90466891Y-119119965D01*
X90467109Y-118870529D01*
X90417000Y-118749256D01*
X90417000Y-118677000D01*
X94665000Y-118677000D01*
X94665000Y-119177000D01*
X96173000Y-119177000D01*
X96173000Y-117333223D01*
X96427000Y-117333223D01*
X96427000Y-119177000D01*
X97935000Y-119177000D01*
X97935000Y-118677000D01*
X102065000Y-118677000D01*
X102065000Y-119177000D01*
X103573000Y-119177000D01*
X103573000Y-117333223D01*
X103827000Y-117333223D01*
X103827000Y-119177000D01*
X105335000Y-119177000D01*
X105335000Y-118677000D01*
X105161942Y-118060980D01*
X104819554Y-117625750D01*
X107560000Y-117625750D01*
X107560000Y-117791310D01*
X107656673Y-118024699D01*
X107835302Y-118203327D01*
X108068691Y-118300000D01*
X108434250Y-118300000D01*
X108593000Y-118141250D01*
X108593000Y-117467000D01*
X107718750Y-117467000D01*
X107560000Y-117625750D01*
X104819554Y-117625750D01*
X104766317Y-117558078D01*
X104208355Y-117244856D01*
X104080434Y-117213876D01*
X103827000Y-117333223D01*
X103573000Y-117333223D01*
X103319566Y-117213876D01*
X103191645Y-117244856D01*
X102633683Y-117558078D01*
X102238058Y-118060980D01*
X102065000Y-118677000D01*
X97935000Y-118677000D01*
X97761942Y-118060980D01*
X97366317Y-117558078D01*
X96808355Y-117244856D01*
X96680434Y-117213876D01*
X96427000Y-117333223D01*
X96173000Y-117333223D01*
X95919566Y-117213876D01*
X95791645Y-117244856D01*
X95233683Y-117558078D01*
X94838058Y-118060980D01*
X94665000Y-118677000D01*
X90417000Y-118677000D01*
X90417000Y-112363400D01*
X90373078Y-112142592D01*
X90248001Y-111955399D01*
X86533800Y-108241198D01*
X86533800Y-105857680D01*
X87952310Y-107276190D01*
X88107060Y-107379591D01*
X88289600Y-107415900D01*
X88399479Y-107415900D01*
X88411329Y-107427771D01*
X88623324Y-107515800D01*
X88852869Y-107516000D01*
X89040978Y-107438275D01*
X89038300Y-107444724D01*
X89038100Y-107674269D01*
X89125758Y-107886417D01*
X89287929Y-108048871D01*
X89499924Y-108136900D01*
X89729469Y-108137100D01*
X89775700Y-108117998D01*
X89775700Y-108793520D01*
X89422505Y-109146715D01*
X89405731Y-109146700D01*
X89193583Y-109234358D01*
X89031129Y-109396529D01*
X88943100Y-109608524D01*
X88942900Y-109838069D01*
X89030558Y-110050217D01*
X89192729Y-110212671D01*
X89404724Y-110300700D01*
X89634269Y-110300900D01*
X89846417Y-110213242D01*
X90008871Y-110051071D01*
X90096900Y-109839076D01*
X90096915Y-109821465D01*
X90589990Y-109328390D01*
X90693391Y-109173641D01*
X90729700Y-108991100D01*
X90729700Y-106415600D01*
X90693391Y-106233060D01*
X90693391Y-106233059D01*
X90589990Y-106078310D01*
X88585100Y-104073420D01*
X88585100Y-96818180D01*
X89012600Y-96390680D01*
X89012600Y-103881800D01*
X89048909Y-104064340D01*
X89152310Y-104219090D01*
X94528700Y-109595480D01*
X94528700Y-110392400D01*
X94565009Y-110574940D01*
X94668410Y-110729690D01*
X95392320Y-111453600D01*
X92854705Y-113991215D01*
X92837931Y-113991200D01*
X92625783Y-114078858D01*
X92463329Y-114241029D01*
X92375300Y-114453024D01*
X92375100Y-114682569D01*
X92462758Y-114894717D01*
X92624929Y-115057171D01*
X92836924Y-115145200D01*
X93066469Y-115145400D01*
X93278617Y-115057742D01*
X93441071Y-114895571D01*
X93529100Y-114683576D01*
X93529115Y-114665965D01*
X94605330Y-113589750D01*
X97815000Y-113589750D01*
X97815000Y-114930310D01*
X97911673Y-115163699D01*
X98090302Y-115342327D01*
X98323691Y-115439000D01*
X98514250Y-115439000D01*
X98673000Y-115280250D01*
X98673000Y-113431000D01*
X98927000Y-113431000D01*
X98927000Y-115280250D01*
X99085750Y-115439000D01*
X99276309Y-115439000D01*
X99509698Y-115342327D01*
X99688327Y-115163699D01*
X99785000Y-114930310D01*
X99785000Y-113589750D01*
X99626250Y-113431000D01*
X98927000Y-113431000D01*
X98673000Y-113431000D01*
X97973750Y-113431000D01*
X97815000Y-113589750D01*
X94605330Y-113589750D01*
X96264480Y-111930600D01*
X97815000Y-111930600D01*
X97815000Y-113018250D01*
X97973750Y-113177000D01*
X98673000Y-113177000D01*
X98673000Y-113157000D01*
X98927000Y-113157000D01*
X98927000Y-113177000D01*
X99626250Y-113177000D01*
X99785000Y-113018250D01*
X99785000Y-111930600D01*
X100516594Y-111930600D01*
X100516594Y-114804000D01*
X100539395Y-114925179D01*
X100611012Y-115036474D01*
X100623000Y-115044665D01*
X100623000Y-115790699D01*
X99685234Y-116728464D01*
X99564997Y-116778145D01*
X99388465Y-116954369D01*
X99292809Y-117184735D01*
X99292591Y-117434171D01*
X99387845Y-117664703D01*
X99564069Y-117841235D01*
X99794435Y-117936891D01*
X100043871Y-117937109D01*
X100274403Y-117841855D01*
X100450935Y-117665631D01*
X100501255Y-117544447D01*
X101607998Y-116437703D01*
X101608001Y-116437701D01*
X101733078Y-116250508D01*
X101777001Y-116029700D01*
X101777000Y-116029695D01*
X101777000Y-115046510D01*
X101782474Y-115042988D01*
X101857138Y-114933714D01*
X101883406Y-114804000D01*
X101883406Y-111930600D01*
X103987820Y-111930600D01*
X108592998Y-116535778D01*
X108592998Y-116538748D01*
X108434250Y-116380000D01*
X108068691Y-116380000D01*
X107835302Y-116476673D01*
X107656673Y-116655301D01*
X107560000Y-116888690D01*
X107560000Y-117054250D01*
X107718750Y-117213000D01*
X108593000Y-117213000D01*
X108593000Y-117193000D01*
X108847000Y-117193000D01*
X108847000Y-117213000D01*
X108867000Y-117213000D01*
X108867000Y-117467000D01*
X108847000Y-117467000D01*
X108847000Y-118141250D01*
X109005750Y-118300000D01*
X109118300Y-118300000D01*
X109118300Y-118831594D01*
X108195000Y-118831594D01*
X108073821Y-118854395D01*
X107962526Y-118926012D01*
X107887862Y-119035286D01*
X107861594Y-119165000D01*
X107861594Y-119815000D01*
X107884395Y-119936179D01*
X107956012Y-120047474D01*
X108065286Y-120122138D01*
X108195000Y-120148406D01*
X109245000Y-120148406D01*
X109366179Y-120125605D01*
X109477474Y-120053988D01*
X109536911Y-119967000D01*
X109595300Y-119967000D01*
X109777840Y-119930691D01*
X109932590Y-119827290D01*
X110035991Y-119672540D01*
X110072300Y-119490000D01*
X110072300Y-119165000D01*
X112011594Y-119165000D01*
X112011594Y-119815000D01*
X112034395Y-119936179D01*
X112106012Y-120047474D01*
X112215286Y-120122138D01*
X112345000Y-120148406D01*
X113395000Y-120148406D01*
X113516179Y-120125605D01*
X113627474Y-120053988D01*
X113702138Y-119944714D01*
X113728406Y-119815000D01*
X113728406Y-119165000D01*
X113705605Y-119043821D01*
X113633988Y-118932526D01*
X113524714Y-118857862D01*
X113395000Y-118831594D01*
X112345000Y-118831594D01*
X112223821Y-118854395D01*
X112112526Y-118926012D01*
X112037862Y-119035286D01*
X112011594Y-119165000D01*
X110072300Y-119165000D01*
X110072300Y-117015000D01*
X112011594Y-117015000D01*
X112011594Y-117665000D01*
X112034395Y-117786179D01*
X112106012Y-117897474D01*
X112215286Y-117972138D01*
X112345000Y-117998406D01*
X113395000Y-117998406D01*
X113516179Y-117975605D01*
X113627474Y-117903988D01*
X113702138Y-117794714D01*
X113728406Y-117665000D01*
X113728406Y-117015000D01*
X113705605Y-116893821D01*
X113633988Y-116782526D01*
X113524714Y-116707862D01*
X113395000Y-116681594D01*
X112345000Y-116681594D01*
X112223821Y-116704395D01*
X112112526Y-116776012D01*
X112037862Y-116885286D01*
X112011594Y-117015000D01*
X110072300Y-117015000D01*
X110072300Y-116863500D01*
X110035991Y-116680960D01*
X109932590Y-116526210D01*
X106227049Y-112820669D01*
X110020800Y-112820669D01*
X110108458Y-113032817D01*
X110270629Y-113195271D01*
X110482624Y-113283300D01*
X110712169Y-113283500D01*
X110924317Y-113195842D01*
X111086771Y-113033671D01*
X111174800Y-112821676D01*
X111174815Y-112804065D01*
X114196500Y-109782380D01*
X114196500Y-110079520D01*
X110543105Y-113732915D01*
X110526331Y-113732900D01*
X110314183Y-113820558D01*
X110151729Y-113982729D01*
X110063700Y-114194724D01*
X110063500Y-114424269D01*
X110151158Y-114636417D01*
X110313329Y-114798871D01*
X110525324Y-114886900D01*
X110754869Y-114887100D01*
X110967017Y-114799442D01*
X111129471Y-114637271D01*
X111217500Y-114425276D01*
X111217515Y-114407665D01*
X111342577Y-114282603D01*
X112572752Y-114282603D01*
X112789543Y-114807275D01*
X113190614Y-115209047D01*
X113714907Y-115426752D01*
X114282603Y-115427248D01*
X114807275Y-115210457D01*
X115209047Y-114809386D01*
X115426752Y-114285093D01*
X115427248Y-113717397D01*
X115210457Y-113192725D01*
X114809386Y-112790953D01*
X114285093Y-112573248D01*
X113717397Y-112572752D01*
X113192725Y-112789543D01*
X112790953Y-113190614D01*
X112573248Y-113714907D01*
X112572752Y-114282603D01*
X111342577Y-114282603D01*
X115010790Y-110614390D01*
X115114191Y-110459640D01*
X115150500Y-110277100D01*
X115150500Y-100604121D01*
X115162371Y-100592271D01*
X115215014Y-100465494D01*
X117533500Y-102783980D01*
X117533500Y-104625279D01*
X117521629Y-104637129D01*
X117433600Y-104849124D01*
X117433400Y-105078669D01*
X117521058Y-105290817D01*
X117683229Y-105453271D01*
X117895224Y-105541300D01*
X118124769Y-105541500D01*
X118336917Y-105453842D01*
X118499371Y-105291671D01*
X118587400Y-105079676D01*
X118587600Y-104850131D01*
X118499942Y-104637983D01*
X118487500Y-104625519D01*
X118487500Y-102586400D01*
X118451191Y-102403860D01*
X118347790Y-102249110D01*
X115230785Y-99132105D01*
X115230800Y-99115331D01*
X115143142Y-98903183D01*
X114980971Y-98740729D01*
X114768976Y-98652700D01*
X114539431Y-98652500D01*
X114327283Y-98740158D01*
X114164829Y-98902329D01*
X114076800Y-99114324D01*
X114076600Y-99343869D01*
X114164258Y-99556017D01*
X114326429Y-99718471D01*
X114405640Y-99751363D01*
X114347083Y-99775558D01*
X114184629Y-99937729D01*
X114096600Y-100149724D01*
X114096436Y-100337820D01*
X113958931Y-100337700D01*
X113746783Y-100425358D01*
X113584329Y-100587529D01*
X113496300Y-100799524D01*
X113496100Y-101029069D01*
X113583758Y-101241217D01*
X113596200Y-101253681D01*
X113596200Y-109033520D01*
X110500405Y-112129315D01*
X110483631Y-112129300D01*
X110271483Y-112216958D01*
X110109029Y-112379129D01*
X110021000Y-112591124D01*
X110020800Y-112820669D01*
X106227049Y-112820669D01*
X104522690Y-111116310D01*
X104367940Y-111012909D01*
X104185400Y-110976600D01*
X96264480Y-110976600D01*
X95482700Y-110194820D01*
X95482700Y-109902468D01*
X95490724Y-109905800D01*
X95720269Y-109906000D01*
X95932417Y-109818342D01*
X95944881Y-109805900D01*
X104508100Y-109805900D01*
X104690640Y-109769591D01*
X104845390Y-109666190D01*
X110865390Y-103646190D01*
X110968791Y-103491440D01*
X111005100Y-103308900D01*
X111005100Y-96045700D01*
X110974287Y-95890791D01*
X110968791Y-95863159D01*
X110940063Y-95820165D01*
X111249464Y-96129566D01*
X111299145Y-96249803D01*
X111475369Y-96426335D01*
X111705735Y-96521991D01*
X111955171Y-96522209D01*
X112035900Y-96488852D01*
X112035900Y-106196520D01*
X110896385Y-107336035D01*
X110832442Y-107181283D01*
X110820000Y-107168819D01*
X110820000Y-105786942D01*
X110901317Y-105753342D01*
X111063771Y-105591171D01*
X111151800Y-105379176D01*
X111152000Y-105149631D01*
X111064342Y-104937483D01*
X110902171Y-104775029D01*
X110690176Y-104687000D01*
X110460631Y-104686800D01*
X110248483Y-104774458D01*
X110086029Y-104936629D01*
X109998000Y-105148624D01*
X109997981Y-105170077D01*
X109902309Y-105313260D01*
X109866000Y-105495800D01*
X109866000Y-107168579D01*
X109854129Y-107180429D01*
X109766100Y-107392424D01*
X109765900Y-107621969D01*
X109853558Y-107834117D01*
X110015729Y-107996571D01*
X110089638Y-108027261D01*
X110020100Y-108194724D01*
X110019900Y-108424269D01*
X110107558Y-108636417D01*
X110269729Y-108798871D01*
X110400254Y-108853070D01*
X110313883Y-108888758D01*
X110151429Y-109050929D01*
X110063400Y-109262924D01*
X110063200Y-109492469D01*
X110150858Y-109704617D01*
X110313029Y-109867071D01*
X110525024Y-109955100D01*
X110754569Y-109955300D01*
X110966717Y-109867642D01*
X111129171Y-109705471D01*
X111217200Y-109493476D01*
X111217215Y-109475865D01*
X113350490Y-107342590D01*
X113453891Y-107187841D01*
X113490200Y-107005300D01*
X113490200Y-95450100D01*
X113470051Y-95348801D01*
X113453891Y-95267559D01*
X113350490Y-95112810D01*
X105601086Y-87363406D01*
X107350000Y-87363406D01*
X107471179Y-87340605D01*
X107582474Y-87268988D01*
X107657138Y-87159714D01*
X107683406Y-87030000D01*
X107683406Y-86584757D01*
X107764369Y-86780703D01*
X108137334Y-87154319D01*
X108624885Y-87356769D01*
X109152798Y-87357229D01*
X109428664Y-87243244D01*
X112142700Y-89957280D01*
X112142700Y-91110000D01*
X112179009Y-91292540D01*
X112282410Y-91447290D01*
X112437160Y-91550691D01*
X112619700Y-91587000D01*
X112636594Y-91587000D01*
X112636594Y-92110000D01*
X112659395Y-92231179D01*
X112731012Y-92342474D01*
X112840286Y-92417138D01*
X112970000Y-92443406D01*
X113415243Y-92443406D01*
X113219297Y-92524369D01*
X112845681Y-92897334D01*
X112643231Y-93384885D01*
X112642771Y-93912798D01*
X112844369Y-94400703D01*
X113217334Y-94774319D01*
X113704885Y-94976769D01*
X114232798Y-94977229D01*
X114720703Y-94775631D01*
X115094319Y-94402666D01*
X115296769Y-93915115D01*
X115297229Y-93387202D01*
X115183244Y-93111336D01*
X117955690Y-90338890D01*
X118059091Y-90184140D01*
X118095400Y-90001600D01*
X118095400Y-87890721D01*
X118107271Y-87878871D01*
X118195300Y-87666876D01*
X118195500Y-87437331D01*
X118107842Y-87225183D01*
X117945671Y-87062729D01*
X117733676Y-86974700D01*
X117504131Y-86974500D01*
X117291983Y-87062158D01*
X117129529Y-87224329D01*
X117041500Y-87436324D01*
X117041300Y-87665869D01*
X117128958Y-87878017D01*
X117141400Y-87890481D01*
X117141400Y-89804020D01*
X115303406Y-91642014D01*
X115303406Y-90110000D01*
X115280605Y-89988821D01*
X115208988Y-89877526D01*
X115099714Y-89802862D01*
X114970000Y-89776594D01*
X113096700Y-89776594D01*
X113096700Y-89759700D01*
X113060391Y-89577160D01*
X113060391Y-89577159D01*
X112956990Y-89422410D01*
X110103199Y-86568619D01*
X110216769Y-86295115D01*
X110216779Y-86282603D01*
X112572752Y-86282603D01*
X112789543Y-86807275D01*
X113190614Y-87209047D01*
X113714907Y-87426752D01*
X114282603Y-87427248D01*
X114807275Y-87210457D01*
X115209047Y-86809386D01*
X115426752Y-86285093D01*
X115427248Y-85717397D01*
X115210457Y-85192725D01*
X114809386Y-84790953D01*
X114285093Y-84573248D01*
X113717397Y-84572752D01*
X113192725Y-84789543D01*
X112790953Y-85190614D01*
X112573248Y-85714907D01*
X112572752Y-86282603D01*
X110216779Y-86282603D01*
X110217229Y-85767202D01*
X110015631Y-85279297D01*
X109642666Y-84905681D01*
X109155115Y-84703231D01*
X108627202Y-84702771D01*
X108139297Y-84904369D01*
X107765681Y-85277334D01*
X107683406Y-85475473D01*
X107683406Y-85030000D01*
X107660605Y-84908821D01*
X107588988Y-84797526D01*
X107479714Y-84722862D01*
X107350000Y-84696594D01*
X105350000Y-84696594D01*
X105228821Y-84719395D01*
X105117526Y-84791012D01*
X105042862Y-84900286D01*
X105016594Y-85030000D01*
X105016594Y-86778914D01*
X103017000Y-84779320D01*
X103017000Y-81445523D01*
X103234131Y-81355806D01*
X103579593Y-81010947D01*
X103766786Y-80560136D01*
X103767212Y-80072005D01*
X103580806Y-79620869D01*
X103362319Y-79402000D01*
X114670087Y-79402000D01*
X115062447Y-81374527D01*
X115122472Y-81519440D01*
X116423108Y-83465981D01*
X116534020Y-83576893D01*
X116534024Y-83576895D01*
X118480557Y-84877526D01*
X118480559Y-84877528D01*
X118625473Y-84937553D01*
X120598000Y-85329913D01*
X120598000Y-114670087D01*
X118625473Y-115062447D01*
X118480559Y-115122472D01*
X118480557Y-115122474D01*
X116534024Y-116423105D01*
X116534020Y-116423107D01*
X116423108Y-116534019D01*
X115122473Y-118480559D01*
X115122472Y-118480560D01*
X115062447Y-118625473D01*
X114670087Y-120598000D01*
X105121837Y-120598000D01*
X105161942Y-120547020D01*
X105335000Y-119931000D01*
X105335000Y-119431000D01*
X103827000Y-119431000D01*
X103827000Y-119451000D01*
X103573000Y-119451000D01*
X103573000Y-119431000D01*
X102065000Y-119431000D01*
X102065000Y-119931000D01*
X102238058Y-120547020D01*
X102278163Y-120598000D01*
X97721837Y-120598000D01*
X97761942Y-120547020D01*
X97935000Y-119931000D01*
X97935000Y-119431000D01*
X96427000Y-119431000D01*
X96427000Y-119451000D01*
X96173000Y-119451000D01*
X96173000Y-119431000D01*
X94665000Y-119431000D01*
X94665000Y-119931000D01*
X94838058Y-120547020D01*
X94878163Y-120598000D01*
X85329913Y-120598000D01*
X84937553Y-118625473D01*
X84877528Y-118480559D01*
X84877526Y-118480557D01*
X83576895Y-116534024D01*
X83576893Y-116534020D01*
X83465981Y-116423108D01*
X81519440Y-115122472D01*
X81374527Y-115062447D01*
X79402000Y-114670087D01*
X79402000Y-114282603D01*
X84572752Y-114282603D01*
X84789543Y-114807275D01*
X85190614Y-115209047D01*
X85714907Y-115426752D01*
X86282603Y-115427248D01*
X86807275Y-115210457D01*
X87209047Y-114809386D01*
X87426752Y-114285093D01*
X87427248Y-113717397D01*
X87210457Y-113192725D01*
X86809386Y-112790953D01*
X86285093Y-112573248D01*
X85717397Y-112572752D01*
X85192725Y-112789543D01*
X84790953Y-113190614D01*
X84573248Y-113714907D01*
X84572752Y-114282603D01*
X79402000Y-114282603D01*
X79402000Y-86282603D01*
X84572752Y-86282603D01*
X84789543Y-86807275D01*
X85190614Y-87209047D01*
X85714907Y-87426752D01*
X86282603Y-87427248D01*
X86807275Y-87210457D01*
X87209047Y-86809386D01*
X87426752Y-86285093D01*
X87427248Y-85717397D01*
X87210457Y-85192725D01*
X86809386Y-84790953D01*
X86285093Y-84573248D01*
X85717397Y-84572752D01*
X85192725Y-84789543D01*
X84790953Y-85190614D01*
X84573248Y-85714907D01*
X84572752Y-86282603D01*
X79402000Y-86282603D01*
X79402000Y-85329913D01*
X81374527Y-84937553D01*
X81519440Y-84877528D01*
X83465981Y-83576892D01*
X83576893Y-83465980D01*
X83576895Y-83465976D01*
X84877526Y-81519443D01*
X84877528Y-81519441D01*
X84937553Y-81374527D01*
X85329913Y-79402000D01*
X96637840Y-79402000D01*
X96420407Y-79619053D01*
X96420407Y-79619053D01*
G37*
X96420407Y-79619053D02*
X96233214Y-80069864D01*
X96232788Y-80557995D01*
X96419194Y-81009131D01*
X96764053Y-81354593D01*
X97214864Y-81541786D01*
X97702995Y-81542212D01*
X98058889Y-81395159D01*
X99099446Y-81395159D01*
X99185852Y-81651643D01*
X99759336Y-81861458D01*
X100369460Y-81835839D01*
X100814148Y-81651643D01*
X100900554Y-81395159D01*
X100000000Y-80494605D01*
X99099446Y-81395159D01*
X98058889Y-81395159D01*
X98154131Y-81355806D01*
X98499593Y-81010947D01*
X98557065Y-80872538D01*
X98663357Y-81129148D01*
X98919841Y-81215554D01*
X99820395Y-80315000D01*
X99806253Y-80300858D01*
X99985858Y-80121253D01*
X100000000Y-80135395D01*
X100014143Y-80121253D01*
X100193748Y-80300858D01*
X100179605Y-80315000D01*
X101080159Y-81215554D01*
X101336643Y-81129148D01*
X101436269Y-80856841D01*
X101499194Y-81009131D01*
X101844053Y-81354593D01*
X102063000Y-81445508D01*
X102063000Y-84976900D01*
X102099309Y-85159440D01*
X102202710Y-85314190D01*
X106778620Y-89890100D01*
X91949580Y-89890100D01*
X93982280Y-87857400D01*
X95185579Y-87857400D01*
X95197329Y-87869171D01*
X95409324Y-87957200D01*
X95638869Y-87957400D01*
X95851017Y-87869742D01*
X96013471Y-87707571D01*
X96101500Y-87495576D01*
X96101700Y-87266031D01*
X96014042Y-87053883D01*
X95851871Y-86891429D01*
X95639876Y-86803400D01*
X95410331Y-86803200D01*
X95198183Y-86890858D01*
X95185619Y-86903400D01*
X94983406Y-86903400D01*
X94983406Y-85030000D01*
X94960605Y-84908821D01*
X94888988Y-84797526D01*
X94779714Y-84722862D01*
X94650000Y-84696594D01*
X92650000Y-84696594D01*
X92528821Y-84719395D01*
X92417526Y-84791012D01*
X92342862Y-84900286D01*
X92316594Y-85030000D01*
X92316594Y-85475243D01*
X92235631Y-85279297D01*
X91862666Y-84905681D01*
X91375115Y-84703231D01*
X90847202Y-84702771D01*
X90359297Y-84904369D01*
X89985681Y-85277334D01*
X89783231Y-85764885D01*
X89782771Y-86292798D01*
X89896756Y-86568664D01*
X87043010Y-89422410D01*
X86939609Y-89577160D01*
X86903300Y-89759700D01*
X86903300Y-89776594D01*
X85030000Y-89776594D01*
X84908821Y-89799395D01*
X84797526Y-89871012D01*
X84722862Y-89980286D01*
X84696594Y-90110000D01*
X84696594Y-91642014D01*
X83025300Y-89970720D01*
X83025300Y-87309421D01*
X83037171Y-87297571D01*
X83125200Y-87085576D01*
X83125400Y-86856031D01*
X83037742Y-86643883D01*
X82875571Y-86481429D01*
X82663576Y-86393400D01*
X82434031Y-86393200D01*
X82221883Y-86480858D01*
X82059429Y-86643029D01*
X81971400Y-86855024D01*
X81971200Y-87084569D01*
X82058858Y-87296717D01*
X82071300Y-87309181D01*
X82071300Y-90168300D01*
X82107609Y-90350840D01*
X82211010Y-90505590D01*
X84816801Y-93111381D01*
X84703231Y-93384885D01*
X84702771Y-93912798D01*
X84904369Y-94400703D01*
X85277334Y-94774319D01*
X85764885Y-94976769D01*
X86290693Y-94977227D01*
X86269910Y-94998010D01*
X86166509Y-95152760D01*
X86130200Y-95335300D01*
X86130200Y-101187296D01*
X86082065Y-101167309D01*
X85832629Y-101167091D01*
X85602097Y-101262345D01*
X85425565Y-101438569D01*
X85329909Y-101668935D01*
X85329691Y-101918371D01*
X85379800Y-102039644D01*
X85379800Y-108480195D01*
X85379799Y-108480200D01*
X85423722Y-108701008D01*
X85548799Y-108888201D01*
X89263000Y-112602402D01*
X89263000Y-118749284D01*
X89213109Y-118869435D01*
X89212891Y-119118871D01*
X89308145Y-119349403D01*
X89484369Y-119525935D01*
X89714735Y-119621591D01*
X89964171Y-119621809D01*
X90194703Y-119526555D01*
X90371235Y-119350331D01*
X90466891Y-119119965D01*
X90467109Y-118870529D01*
X90417000Y-118749256D01*
X90417000Y-118677000D01*
X94665000Y-118677000D01*
X94665000Y-119177000D01*
X96173000Y-119177000D01*
X96173000Y-117333223D01*
X96427000Y-117333223D01*
X96427000Y-119177000D01*
X97935000Y-119177000D01*
X97935000Y-118677000D01*
X102065000Y-118677000D01*
X102065000Y-119177000D01*
X103573000Y-119177000D01*
X103573000Y-117333223D01*
X103827000Y-117333223D01*
X103827000Y-119177000D01*
X105335000Y-119177000D01*
X105335000Y-118677000D01*
X105161942Y-118060980D01*
X104819554Y-117625750D01*
X107560000Y-117625750D01*
X107560000Y-117791310D01*
X107656673Y-118024699D01*
X107835302Y-118203327D01*
X108068691Y-118300000D01*
X108434250Y-118300000D01*
X108593000Y-118141250D01*
X108593000Y-117467000D01*
X107718750Y-117467000D01*
X107560000Y-117625750D01*
X104819554Y-117625750D01*
X104766317Y-117558078D01*
X104208355Y-117244856D01*
X104080434Y-117213876D01*
X103827000Y-117333223D01*
X103573000Y-117333223D01*
X103319566Y-117213876D01*
X103191645Y-117244856D01*
X102633683Y-117558078D01*
X102238058Y-118060980D01*
X102065000Y-118677000D01*
X97935000Y-118677000D01*
X97761942Y-118060980D01*
X97366317Y-117558078D01*
X96808355Y-117244856D01*
X96680434Y-117213876D01*
X96427000Y-117333223D01*
X96173000Y-117333223D01*
X95919566Y-117213876D01*
X95791645Y-117244856D01*
X95233683Y-117558078D01*
X94838058Y-118060980D01*
X94665000Y-118677000D01*
X90417000Y-118677000D01*
X90417000Y-112363400D01*
X90373078Y-112142592D01*
X90248001Y-111955399D01*
X86533800Y-108241198D01*
X86533800Y-105857680D01*
X87952310Y-107276190D01*
X88107060Y-107379591D01*
X88289600Y-107415900D01*
X88399479Y-107415900D01*
X88411329Y-107427771D01*
X88623324Y-107515800D01*
X88852869Y-107516000D01*
X89040978Y-107438275D01*
X89038300Y-107444724D01*
X89038100Y-107674269D01*
X89125758Y-107886417D01*
X89287929Y-108048871D01*
X89499924Y-108136900D01*
X89729469Y-108137100D01*
X89775700Y-108117998D01*
X89775700Y-108793520D01*
X89422505Y-109146715D01*
X89405731Y-109146700D01*
X89193583Y-109234358D01*
X89031129Y-109396529D01*
X88943100Y-109608524D01*
X88942900Y-109838069D01*
X89030558Y-110050217D01*
X89192729Y-110212671D01*
X89404724Y-110300700D01*
X89634269Y-110300900D01*
X89846417Y-110213242D01*
X90008871Y-110051071D01*
X90096900Y-109839076D01*
X90096915Y-109821465D01*
X90589990Y-109328390D01*
X90693391Y-109173641D01*
X90729700Y-108991100D01*
X90729700Y-106415600D01*
X90693391Y-106233060D01*
X90693391Y-106233059D01*
X90589990Y-106078310D01*
X88585100Y-104073420D01*
X88585100Y-96818180D01*
X89012600Y-96390680D01*
X89012600Y-103881800D01*
X89048909Y-104064340D01*
X89152310Y-104219090D01*
X94528700Y-109595480D01*
X94528700Y-110392400D01*
X94565009Y-110574940D01*
X94668410Y-110729690D01*
X95392320Y-111453600D01*
X92854705Y-113991215D01*
X92837931Y-113991200D01*
X92625783Y-114078858D01*
X92463329Y-114241029D01*
X92375300Y-114453024D01*
X92375100Y-114682569D01*
X92462758Y-114894717D01*
X92624929Y-115057171D01*
X92836924Y-115145200D01*
X93066469Y-115145400D01*
X93278617Y-115057742D01*
X93441071Y-114895571D01*
X93529100Y-114683576D01*
X93529115Y-114665965D01*
X94605330Y-113589750D01*
X97815000Y-113589750D01*
X97815000Y-114930310D01*
X97911673Y-115163699D01*
X98090302Y-115342327D01*
X98323691Y-115439000D01*
X98514250Y-115439000D01*
X98673000Y-115280250D01*
X98673000Y-113431000D01*
X98927000Y-113431000D01*
X98927000Y-115280250D01*
X99085750Y-115439000D01*
X99276309Y-115439000D01*
X99509698Y-115342327D01*
X99688327Y-115163699D01*
X99785000Y-114930310D01*
X99785000Y-113589750D01*
X99626250Y-113431000D01*
X98927000Y-113431000D01*
X98673000Y-113431000D01*
X97973750Y-113431000D01*
X97815000Y-113589750D01*
X94605330Y-113589750D01*
X96264480Y-111930600D01*
X97815000Y-111930600D01*
X97815000Y-113018250D01*
X97973750Y-113177000D01*
X98673000Y-113177000D01*
X98673000Y-113157000D01*
X98927000Y-113157000D01*
X98927000Y-113177000D01*
X99626250Y-113177000D01*
X99785000Y-113018250D01*
X99785000Y-111930600D01*
X100516594Y-111930600D01*
X100516594Y-114804000D01*
X100539395Y-114925179D01*
X100611012Y-115036474D01*
X100623000Y-115044665D01*
X100623000Y-115790699D01*
X99685234Y-116728464D01*
X99564997Y-116778145D01*
X99388465Y-116954369D01*
X99292809Y-117184735D01*
X99292591Y-117434171D01*
X99387845Y-117664703D01*
X99564069Y-117841235D01*
X99794435Y-117936891D01*
X100043871Y-117937109D01*
X100274403Y-117841855D01*
X100450935Y-117665631D01*
X100501255Y-117544447D01*
X101607998Y-116437703D01*
X101608001Y-116437701D01*
X101733078Y-116250508D01*
X101777001Y-116029700D01*
X101777000Y-116029695D01*
X101777000Y-115046510D01*
X101782474Y-115042988D01*
X101857138Y-114933714D01*
X101883406Y-114804000D01*
X101883406Y-111930600D01*
X103987820Y-111930600D01*
X108592998Y-116535778D01*
X108592998Y-116538748D01*
X108434250Y-116380000D01*
X108068691Y-116380000D01*
X107835302Y-116476673D01*
X107656673Y-116655301D01*
X107560000Y-116888690D01*
X107560000Y-117054250D01*
X107718750Y-117213000D01*
X108593000Y-117213000D01*
X108593000Y-117193000D01*
X108847000Y-117193000D01*
X108847000Y-117213000D01*
X108867000Y-117213000D01*
X108867000Y-117467000D01*
X108847000Y-117467000D01*
X108847000Y-118141250D01*
X109005750Y-118300000D01*
X109118300Y-118300000D01*
X109118300Y-118831594D01*
X108195000Y-118831594D01*
X108073821Y-118854395D01*
X107962526Y-118926012D01*
X107887862Y-119035286D01*
X107861594Y-119165000D01*
X107861594Y-119815000D01*
X107884395Y-119936179D01*
X107956012Y-120047474D01*
X108065286Y-120122138D01*
X108195000Y-120148406D01*
X109245000Y-120148406D01*
X109366179Y-120125605D01*
X109477474Y-120053988D01*
X109536911Y-119967000D01*
X109595300Y-119967000D01*
X109777840Y-119930691D01*
X109932590Y-119827290D01*
X110035991Y-119672540D01*
X110072300Y-119490000D01*
X110072300Y-119165000D01*
X112011594Y-119165000D01*
X112011594Y-119815000D01*
X112034395Y-119936179D01*
X112106012Y-120047474D01*
X112215286Y-120122138D01*
X112345000Y-120148406D01*
X113395000Y-120148406D01*
X113516179Y-120125605D01*
X113627474Y-120053988D01*
X113702138Y-119944714D01*
X113728406Y-119815000D01*
X113728406Y-119165000D01*
X113705605Y-119043821D01*
X113633988Y-118932526D01*
X113524714Y-118857862D01*
X113395000Y-118831594D01*
X112345000Y-118831594D01*
X112223821Y-118854395D01*
X112112526Y-118926012D01*
X112037862Y-119035286D01*
X112011594Y-119165000D01*
X110072300Y-119165000D01*
X110072300Y-117015000D01*
X112011594Y-117015000D01*
X112011594Y-117665000D01*
X112034395Y-117786179D01*
X112106012Y-117897474D01*
X112215286Y-117972138D01*
X112345000Y-117998406D01*
X113395000Y-117998406D01*
X113516179Y-117975605D01*
X113627474Y-117903988D01*
X113702138Y-117794714D01*
X113728406Y-117665000D01*
X113728406Y-117015000D01*
X113705605Y-116893821D01*
X113633988Y-116782526D01*
X113524714Y-116707862D01*
X113395000Y-116681594D01*
X112345000Y-116681594D01*
X112223821Y-116704395D01*
X112112526Y-116776012D01*
X112037862Y-116885286D01*
X112011594Y-117015000D01*
X110072300Y-117015000D01*
X110072300Y-116863500D01*
X110035991Y-116680960D01*
X109932590Y-116526210D01*
X106227049Y-112820669D01*
X110020800Y-112820669D01*
X110108458Y-113032817D01*
X110270629Y-113195271D01*
X110482624Y-113283300D01*
X110712169Y-113283500D01*
X110924317Y-113195842D01*
X111086771Y-113033671D01*
X111174800Y-112821676D01*
X111174815Y-112804065D01*
X114196500Y-109782380D01*
X114196500Y-110079520D01*
X110543105Y-113732915D01*
X110526331Y-113732900D01*
X110314183Y-113820558D01*
X110151729Y-113982729D01*
X110063700Y-114194724D01*
X110063500Y-114424269D01*
X110151158Y-114636417D01*
X110313329Y-114798871D01*
X110525324Y-114886900D01*
X110754869Y-114887100D01*
X110967017Y-114799442D01*
X111129471Y-114637271D01*
X111217500Y-114425276D01*
X111217515Y-114407665D01*
X111342577Y-114282603D01*
X112572752Y-114282603D01*
X112789543Y-114807275D01*
X113190614Y-115209047D01*
X113714907Y-115426752D01*
X114282603Y-115427248D01*
X114807275Y-115210457D01*
X115209047Y-114809386D01*
X115426752Y-114285093D01*
X115427248Y-113717397D01*
X115210457Y-113192725D01*
X114809386Y-112790953D01*
X114285093Y-112573248D01*
X113717397Y-112572752D01*
X113192725Y-112789543D01*
X112790953Y-113190614D01*
X112573248Y-113714907D01*
X112572752Y-114282603D01*
X111342577Y-114282603D01*
X115010790Y-110614390D01*
X115114191Y-110459640D01*
X115150500Y-110277100D01*
X115150500Y-100604121D01*
X115162371Y-100592271D01*
X115215014Y-100465494D01*
X117533500Y-102783980D01*
X117533500Y-104625279D01*
X117521629Y-104637129D01*
X117433600Y-104849124D01*
X117433400Y-105078669D01*
X117521058Y-105290817D01*
X117683229Y-105453271D01*
X117895224Y-105541300D01*
X118124769Y-105541500D01*
X118336917Y-105453842D01*
X118499371Y-105291671D01*
X118587400Y-105079676D01*
X118587600Y-104850131D01*
X118499942Y-104637983D01*
X118487500Y-104625519D01*
X118487500Y-102586400D01*
X118451191Y-102403860D01*
X118347790Y-102249110D01*
X115230785Y-99132105D01*
X115230800Y-99115331D01*
X115143142Y-98903183D01*
X114980971Y-98740729D01*
X114768976Y-98652700D01*
X114539431Y-98652500D01*
X114327283Y-98740158D01*
X114164829Y-98902329D01*
X114076800Y-99114324D01*
X114076600Y-99343869D01*
X114164258Y-99556017D01*
X114326429Y-99718471D01*
X114405640Y-99751363D01*
X114347083Y-99775558D01*
X114184629Y-99937729D01*
X114096600Y-100149724D01*
X114096436Y-100337820D01*
X113958931Y-100337700D01*
X113746783Y-100425358D01*
X113584329Y-100587529D01*
X113496300Y-100799524D01*
X113496100Y-101029069D01*
X113583758Y-101241217D01*
X113596200Y-101253681D01*
X113596200Y-109033520D01*
X110500405Y-112129315D01*
X110483631Y-112129300D01*
X110271483Y-112216958D01*
X110109029Y-112379129D01*
X110021000Y-112591124D01*
X110020800Y-112820669D01*
X106227049Y-112820669D01*
X104522690Y-111116310D01*
X104367940Y-111012909D01*
X104185400Y-110976600D01*
X96264480Y-110976600D01*
X95482700Y-110194820D01*
X95482700Y-109902468D01*
X95490724Y-109905800D01*
X95720269Y-109906000D01*
X95932417Y-109818342D01*
X95944881Y-109805900D01*
X104508100Y-109805900D01*
X104690640Y-109769591D01*
X104845390Y-109666190D01*
X110865390Y-103646190D01*
X110968791Y-103491440D01*
X111005100Y-103308900D01*
X111005100Y-96045700D01*
X110974287Y-95890791D01*
X110968791Y-95863159D01*
X110940063Y-95820165D01*
X111249464Y-96129566D01*
X111299145Y-96249803D01*
X111475369Y-96426335D01*
X111705735Y-96521991D01*
X111955171Y-96522209D01*
X112035900Y-96488852D01*
X112035900Y-106196520D01*
X110896385Y-107336035D01*
X110832442Y-107181283D01*
X110820000Y-107168819D01*
X110820000Y-105786942D01*
X110901317Y-105753342D01*
X111063771Y-105591171D01*
X111151800Y-105379176D01*
X111152000Y-105149631D01*
X111064342Y-104937483D01*
X110902171Y-104775029D01*
X110690176Y-104687000D01*
X110460631Y-104686800D01*
X110248483Y-104774458D01*
X110086029Y-104936629D01*
X109998000Y-105148624D01*
X109997981Y-105170077D01*
X109902309Y-105313260D01*
X109866000Y-105495800D01*
X109866000Y-107168579D01*
X109854129Y-107180429D01*
X109766100Y-107392424D01*
X109765900Y-107621969D01*
X109853558Y-107834117D01*
X110015729Y-107996571D01*
X110089638Y-108027261D01*
X110020100Y-108194724D01*
X110019900Y-108424269D01*
X110107558Y-108636417D01*
X110269729Y-108798871D01*
X110400254Y-108853070D01*
X110313883Y-108888758D01*
X110151429Y-109050929D01*
X110063400Y-109262924D01*
X110063200Y-109492469D01*
X110150858Y-109704617D01*
X110313029Y-109867071D01*
X110525024Y-109955100D01*
X110754569Y-109955300D01*
X110966717Y-109867642D01*
X111129171Y-109705471D01*
X111217200Y-109493476D01*
X111217215Y-109475865D01*
X113350490Y-107342590D01*
X113453891Y-107187841D01*
X113490200Y-107005300D01*
X113490200Y-95450100D01*
X113470051Y-95348801D01*
X113453891Y-95267559D01*
X113350490Y-95112810D01*
X105601086Y-87363406D01*
X107350000Y-87363406D01*
X107471179Y-87340605D01*
X107582474Y-87268988D01*
X107657138Y-87159714D01*
X107683406Y-87030000D01*
X107683406Y-86584757D01*
X107764369Y-86780703D01*
X108137334Y-87154319D01*
X108624885Y-87356769D01*
X109152798Y-87357229D01*
X109428664Y-87243244D01*
X112142700Y-89957280D01*
X112142700Y-91110000D01*
X112179009Y-91292540D01*
X112282410Y-91447290D01*
X112437160Y-91550691D01*
X112619700Y-91587000D01*
X112636594Y-91587000D01*
X112636594Y-92110000D01*
X112659395Y-92231179D01*
X112731012Y-92342474D01*
X112840286Y-92417138D01*
X112970000Y-92443406D01*
X113415243Y-92443406D01*
X113219297Y-92524369D01*
X112845681Y-92897334D01*
X112643231Y-93384885D01*
X112642771Y-93912798D01*
X112844369Y-94400703D01*
X113217334Y-94774319D01*
X113704885Y-94976769D01*
X114232798Y-94977229D01*
X114720703Y-94775631D01*
X115094319Y-94402666D01*
X115296769Y-93915115D01*
X115297229Y-93387202D01*
X115183244Y-93111336D01*
X117955690Y-90338890D01*
X118059091Y-90184140D01*
X118095400Y-90001600D01*
X118095400Y-87890721D01*
X118107271Y-87878871D01*
X118195300Y-87666876D01*
X118195500Y-87437331D01*
X118107842Y-87225183D01*
X117945671Y-87062729D01*
X117733676Y-86974700D01*
X117504131Y-86974500D01*
X117291983Y-87062158D01*
X117129529Y-87224329D01*
X117041500Y-87436324D01*
X117041300Y-87665869D01*
X117128958Y-87878017D01*
X117141400Y-87890481D01*
X117141400Y-89804020D01*
X115303406Y-91642014D01*
X115303406Y-90110000D01*
X115280605Y-89988821D01*
X115208988Y-89877526D01*
X115099714Y-89802862D01*
X114970000Y-89776594D01*
X113096700Y-89776594D01*
X113096700Y-89759700D01*
X113060391Y-89577160D01*
X113060391Y-89577159D01*
X112956990Y-89422410D01*
X110103199Y-86568619D01*
X110216769Y-86295115D01*
X110216779Y-86282603D01*
X112572752Y-86282603D01*
X112789543Y-86807275D01*
X113190614Y-87209047D01*
X113714907Y-87426752D01*
X114282603Y-87427248D01*
X114807275Y-87210457D01*
X115209047Y-86809386D01*
X115426752Y-86285093D01*
X115427248Y-85717397D01*
X115210457Y-85192725D01*
X114809386Y-84790953D01*
X114285093Y-84573248D01*
X113717397Y-84572752D01*
X113192725Y-84789543D01*
X112790953Y-85190614D01*
X112573248Y-85714907D01*
X112572752Y-86282603D01*
X110216779Y-86282603D01*
X110217229Y-85767202D01*
X110015631Y-85279297D01*
X109642666Y-84905681D01*
X109155115Y-84703231D01*
X108627202Y-84702771D01*
X108139297Y-84904369D01*
X107765681Y-85277334D01*
X107683406Y-85475473D01*
X107683406Y-85030000D01*
X107660605Y-84908821D01*
X107588988Y-84797526D01*
X107479714Y-84722862D01*
X107350000Y-84696594D01*
X105350000Y-84696594D01*
X105228821Y-84719395D01*
X105117526Y-84791012D01*
X105042862Y-84900286D01*
X105016594Y-85030000D01*
X105016594Y-86778914D01*
X103017000Y-84779320D01*
X103017000Y-81445523D01*
X103234131Y-81355806D01*
X103579593Y-81010947D01*
X103766786Y-80560136D01*
X103767212Y-80072005D01*
X103580806Y-79620869D01*
X103362319Y-79402000D01*
X114670087Y-79402000D01*
X115062447Y-81374527D01*
X115122472Y-81519440D01*
X116423108Y-83465981D01*
X116534020Y-83576893D01*
X116534024Y-83576895D01*
X118480557Y-84877526D01*
X118480559Y-84877528D01*
X118625473Y-84937553D01*
X120598000Y-85329913D01*
X120598000Y-114670087D01*
X118625473Y-115062447D01*
X118480559Y-115122472D01*
X118480557Y-115122474D01*
X116534024Y-116423105D01*
X116534020Y-116423107D01*
X116423108Y-116534019D01*
X115122473Y-118480559D01*
X115122472Y-118480560D01*
X115062447Y-118625473D01*
X114670087Y-120598000D01*
X105121837Y-120598000D01*
X105161942Y-120547020D01*
X105335000Y-119931000D01*
X105335000Y-119431000D01*
X103827000Y-119431000D01*
X103827000Y-119451000D01*
X103573000Y-119451000D01*
X103573000Y-119431000D01*
X102065000Y-119431000D01*
X102065000Y-119931000D01*
X102238058Y-120547020D01*
X102278163Y-120598000D01*
X97721837Y-120598000D01*
X97761942Y-120547020D01*
X97935000Y-119931000D01*
X97935000Y-119431000D01*
X96427000Y-119431000D01*
X96427000Y-119451000D01*
X96173000Y-119451000D01*
X96173000Y-119431000D01*
X94665000Y-119431000D01*
X94665000Y-119931000D01*
X94838058Y-120547020D01*
X94878163Y-120598000D01*
X85329913Y-120598000D01*
X84937553Y-118625473D01*
X84877528Y-118480559D01*
X84877526Y-118480557D01*
X83576895Y-116534024D01*
X83576893Y-116534020D01*
X83465981Y-116423108D01*
X81519440Y-115122472D01*
X81374527Y-115062447D01*
X79402000Y-114670087D01*
X79402000Y-114282603D01*
X84572752Y-114282603D01*
X84789543Y-114807275D01*
X85190614Y-115209047D01*
X85714907Y-115426752D01*
X86282603Y-115427248D01*
X86807275Y-115210457D01*
X87209047Y-114809386D01*
X87426752Y-114285093D01*
X87427248Y-113717397D01*
X87210457Y-113192725D01*
X86809386Y-112790953D01*
X86285093Y-112573248D01*
X85717397Y-112572752D01*
X85192725Y-112789543D01*
X84790953Y-113190614D01*
X84573248Y-113714907D01*
X84572752Y-114282603D01*
X79402000Y-114282603D01*
X79402000Y-86282603D01*
X84572752Y-86282603D01*
X84789543Y-86807275D01*
X85190614Y-87209047D01*
X85714907Y-87426752D01*
X86282603Y-87427248D01*
X86807275Y-87210457D01*
X87209047Y-86809386D01*
X87426752Y-86285093D01*
X87427248Y-85717397D01*
X87210457Y-85192725D01*
X86809386Y-84790953D01*
X86285093Y-84573248D01*
X85717397Y-84572752D01*
X85192725Y-84789543D01*
X84790953Y-85190614D01*
X84573248Y-85714907D01*
X84572752Y-86282603D01*
X79402000Y-86282603D01*
X79402000Y-85329913D01*
X81374527Y-84937553D01*
X81519440Y-84877528D01*
X83465981Y-83576892D01*
X83576893Y-83465980D01*
X83576895Y-83465976D01*
X84877526Y-81519443D01*
X84877528Y-81519441D01*
X84937553Y-81374527D01*
X85329913Y-79402000D01*
X96637840Y-79402000D01*
X96420407Y-79619053D01*
G36*
X104310520Y-108851900D02*
X95945121Y-108851900D01*
X95933271Y-108840029D01*
X95721276Y-108752000D01*
X95491731Y-108751800D01*
X95279583Y-108839458D01*
X95200642Y-108918262D01*
X89966600Y-103684220D01*
X89966600Y-103302000D01*
X109860420Y-103302000D01*
X104310520Y-108851900D01*
X104310520Y-108851900D01*
G37*
X104310520Y-108851900D02*
X95945121Y-108851900D01*
X95933271Y-108840029D01*
X95721276Y-108752000D01*
X95491731Y-108751800D01*
X95279583Y-108839458D01*
X95200642Y-108918262D01*
X89966600Y-103684220D01*
X89966600Y-103302000D01*
X109860420Y-103302000D01*
X104310520Y-108851900D01*
G36*
X104399800Y-90874924D02*
X104399785Y-90892535D01*
X103041420Y-92250900D01*
X94229927Y-92250900D01*
X94233300Y-92242776D01*
X94233500Y-92013231D01*
X94145842Y-91801083D01*
X93983671Y-91638629D01*
X93771676Y-91550600D01*
X93542131Y-91550400D01*
X93329983Y-91638058D01*
X93317519Y-91650500D01*
X91186200Y-91650500D01*
X91003660Y-91686809D01*
X90848910Y-91790210D01*
X87084200Y-95554920D01*
X87084200Y-95532880D01*
X87819990Y-94797090D01*
X87923391Y-94642340D01*
X87959700Y-94459800D01*
X87959700Y-93879980D01*
X90729288Y-91110392D01*
X90736158Y-91127017D01*
X90898329Y-91289471D01*
X91110324Y-91377500D01*
X91339869Y-91377700D01*
X91552017Y-91290042D01*
X91714471Y-91127871D01*
X91802500Y-90915876D01*
X91802515Y-90898265D01*
X91856680Y-90844100D01*
X104412599Y-90844100D01*
X104399800Y-90874924D01*
X104399800Y-90874924D01*
G37*
X104399800Y-90874924D02*
X104399785Y-90892535D01*
X103041420Y-92250900D01*
X94229927Y-92250900D01*
X94233300Y-92242776D01*
X94233500Y-92013231D01*
X94145842Y-91801083D01*
X93983671Y-91638629D01*
X93771676Y-91550600D01*
X93542131Y-91550400D01*
X93329983Y-91638058D01*
X93317519Y-91650500D01*
X91186200Y-91650500D01*
X91003660Y-91686809D01*
X90848910Y-91790210D01*
X87084200Y-95554920D01*
X87084200Y-95532880D01*
X87819990Y-94797090D01*
X87923391Y-94642340D01*
X87959700Y-94459800D01*
X87959700Y-93879980D01*
X90729288Y-91110392D01*
X90736158Y-91127017D01*
X90898329Y-91289471D01*
X91110324Y-91377500D01*
X91339869Y-91377700D01*
X91552017Y-91290042D01*
X91714471Y-91127871D01*
X91802500Y-90915876D01*
X91802515Y-90898265D01*
X91856680Y-90844100D01*
X104412599Y-90844100D01*
X104399800Y-90874924D01*
G36*
X106408100Y-90994724D02*
X106407900Y-91224269D01*
X106495558Y-91436417D01*
X106657729Y-91598871D01*
X106869724Y-91686900D01*
X107099269Y-91687100D01*
X107311417Y-91599442D01*
X107473871Y-91437271D01*
X107516245Y-91335225D01*
X110544820Y-94363800D01*
X96062605Y-94363800D01*
X96062600Y-94363799D01*
X95841792Y-94407722D01*
X95682467Y-94514178D01*
X95682500Y-94476431D01*
X95594842Y-94264283D01*
X95432671Y-94101829D01*
X95220676Y-94013800D01*
X94991131Y-94013600D01*
X94955796Y-94028200D01*
X91375080Y-94028200D01*
X91545980Y-93857300D01*
X103590979Y-93857300D01*
X103602829Y-93869171D01*
X103814824Y-93957200D01*
X104044369Y-93957400D01*
X104256517Y-93869742D01*
X104418971Y-93707571D01*
X104507000Y-93495576D01*
X104507200Y-93266031D01*
X104419542Y-93053883D01*
X104257371Y-92891429D01*
X104045376Y-92803400D01*
X103838260Y-92803220D01*
X105074195Y-91567285D01*
X105090969Y-91567300D01*
X105278756Y-91489708D01*
X105387729Y-91598871D01*
X105599724Y-91686900D01*
X105829269Y-91687100D01*
X106041417Y-91599442D01*
X106203871Y-91437271D01*
X106291900Y-91225276D01*
X106292100Y-90995731D01*
X106229447Y-90844100D01*
X106470645Y-90844100D01*
X106408100Y-90994724D01*
X106408100Y-90994724D01*
G37*
X106408100Y-90994724D02*
X106407900Y-91224269D01*
X106495558Y-91436417D01*
X106657729Y-91598871D01*
X106869724Y-91686900D01*
X107099269Y-91687100D01*
X107311417Y-91599442D01*
X107473871Y-91437271D01*
X107516245Y-91335225D01*
X110544820Y-94363800D01*
X96062605Y-94363800D01*
X96062600Y-94363799D01*
X95841792Y-94407722D01*
X95682467Y-94514178D01*
X95682500Y-94476431D01*
X95594842Y-94264283D01*
X95432671Y-94101829D01*
X95220676Y-94013800D01*
X94991131Y-94013600D01*
X94955796Y-94028200D01*
X91375080Y-94028200D01*
X91545980Y-93857300D01*
X103590979Y-93857300D01*
X103602829Y-93869171D01*
X103814824Y-93957200D01*
X104044369Y-93957400D01*
X104256517Y-93869742D01*
X104418971Y-93707571D01*
X104507000Y-93495576D01*
X104507200Y-93266031D01*
X104419542Y-93053883D01*
X104257371Y-92891429D01*
X104045376Y-92803400D01*
X103838260Y-92803220D01*
X105074195Y-91567285D01*
X105090969Y-91567300D01*
X105278756Y-91489708D01*
X105387729Y-91598871D01*
X105599724Y-91686900D01*
X105829269Y-91687100D01*
X106041417Y-91599442D01*
X106203871Y-91437271D01*
X106291900Y-91225276D01*
X106292100Y-90995731D01*
X106229447Y-90844100D01*
X106470645Y-90844100D01*
X106408100Y-90994724D01*
G36*
X92316594Y-87030000D02*
X92339395Y-87151179D01*
X92411012Y-87262474D01*
X92520286Y-87337138D01*
X92650000Y-87363406D01*
X93127114Y-87363406D01*
X87282990Y-93207530D01*
X87155631Y-92899297D01*
X86782666Y-92525681D01*
X86584527Y-92443406D01*
X87030000Y-92443406D01*
X87151179Y-92420605D01*
X87262474Y-92348988D01*
X87337138Y-92239714D01*
X87363406Y-92110000D01*
X87363406Y-91587000D01*
X87380300Y-91587000D01*
X87562840Y-91550691D01*
X87717590Y-91447290D01*
X87820991Y-91292540D01*
X87857300Y-91110000D01*
X87857300Y-89957280D01*
X90571381Y-87243199D01*
X90844885Y-87356769D01*
X91372798Y-87357229D01*
X91860703Y-87155631D01*
X92234319Y-86782666D01*
X92316594Y-86584527D01*
X92316594Y-87030000D01*
X92316594Y-87030000D01*
G37*
X92316594Y-87030000D02*
X92339395Y-87151179D01*
X92411012Y-87262474D01*
X92520286Y-87337138D01*
X92650000Y-87363406D01*
X93127114Y-87363406D01*
X87282990Y-93207530D01*
X87155631Y-92899297D01*
X86782666Y-92525681D01*
X86584527Y-92443406D01*
X87030000Y-92443406D01*
X87151179Y-92420605D01*
X87262474Y-92348988D01*
X87337138Y-92239714D01*
X87363406Y-92110000D01*
X87363406Y-91587000D01*
X87380300Y-91587000D01*
X87562840Y-91550691D01*
X87717590Y-91447290D01*
X87820991Y-91292540D01*
X87857300Y-91110000D01*
X87857300Y-89957280D01*
X90571381Y-87243199D01*
X90844885Y-87356769D01*
X91372798Y-87357229D01*
X91860703Y-87155631D01*
X92234319Y-86782666D01*
X92316594Y-86584527D01*
X92316594Y-87030000D01*
M02*
