M48
;DRILL file {KiCad 4.0.1-stable} date 2017/04/12 14:46:24
;FORMAT={-:-/ absolute / metric / decimal}
FMAT,2
METRIC,TZ
T1C0.300
T2C0.500
T3C1.000
T4C1.001
T5C1.016
%
G90
G05
M71
T1
X85.315Y-103.5
X86.673Y-108.694
X87.803Y-104.212
X88.078Y-95.538
X88.889Y-106.006
X89.33Y-104.928
X97.123Y-109.81
X97.646Y-105.31
X98.703Y-106.353
X98.915Y-108.568
X99.45Y-106.554
X105.351Y-118.868
X106.375Y-93.004
X107.62Y-117.578
X108.08Y-109.061
X110.187Y-109.09
X110.55Y-91.626
X112.03Y-94.316
X113.176Y-112.773
X113.304Y-99.78
T2
X81.605Y-96.772
X83.442Y-101.566
X83.695Y-108.632
X93.311Y-116.651
X95.532Y-118.161
X112.283Y-105.697
T3
X97.46Y-80.315
X100.Y-80.315
X102.54Y-80.315
T4
X86.03Y-91.11
X86.03Y-93.65
X91.11Y-86.03
X93.65Y-86.03
X106.35Y-86.03
X108.89Y-86.03
X113.97Y-91.11
X113.97Y-93.65
T5
X118.Y-103.
X118.Y-105.54
X118.Y-108.08
X118.Y-110.62
T3
X96.3Y-119.435G85X96.3Y-119.935
G05
X103.7Y-119.435G85X103.7Y-119.935
G05
T0
M30
