G04 #@! TF.FileFunction,Copper,L1,Top,Signal*
%FSLAX46Y46*%
G04 Gerber Fmt 4.6, Leading zero omitted, Abs format (unit mm)*
G04 Created by KiCad (PCBNEW 4.0.1-stable) date 2017/04/12 14:46:20*
%MOMM*%
G01*
G04 APERTURE LIST*
%ADD10C,0.100000*%
%ADD11R,2.000000X2.000000*%
%ADD12C,2.000000*%
%ADD13R,0.800100X0.800100*%
%ADD14R,0.750000X0.800000*%
%ADD15R,0.800000X0.750000*%
%ADD16R,1.000000X1.600000*%
%ADD17R,0.500000X0.900000*%
%ADD18R,0.900000X0.500000*%
%ADD19R,2.500000X1.000000*%
%ADD20R,1.550000X0.600000*%
%ADD21R,1.800000X1.200000*%
%ADD22R,1.600000X1.000000*%
%ADD23O,2.000000X2.000000*%
%ADD24O,2.000000X0.900000*%
%ADD25R,2.000000X0.900000*%
%ADD26C,1.800000*%
%ADD27R,0.701040X1.501140*%
%ADD28R,1.000760X1.501140*%
%ADD29R,1.998980X0.800100*%
%ADD30R,2.032000X1.727200*%
%ADD31O,2.032000X1.727200*%
%ADD32C,0.800000*%
%ADD33C,0.400000*%
%ADD34C,0.600000*%
%ADD35C,0.200000*%
G04 APERTURE END LIST*
D10*
D11*
X113970000Y-91110000D03*
D12*
X113970000Y-93650000D03*
D11*
X86030000Y-91110000D03*
D12*
X86030000Y-93650000D03*
D11*
X106350000Y-86030000D03*
D12*
X108890000Y-86030000D03*
D11*
X93650000Y-86030000D03*
D12*
X91110000Y-86030000D03*
D13*
X91430000Y-92110760D03*
X93330000Y-92110760D03*
X92380000Y-90111780D03*
D14*
X91745000Y-80200000D03*
X91745000Y-81700000D03*
D15*
X113250000Y-110000000D03*
X114750000Y-110000000D03*
X114750000Y-101000000D03*
X113250000Y-101000000D03*
D16*
X119500000Y-97000000D03*
X116500000Y-97000000D03*
D17*
X119750000Y-114000000D03*
X118250000Y-114000000D03*
X87250000Y-111000000D03*
X88750000Y-111000000D03*
D18*
X87000000Y-106750000D03*
X87000000Y-105250000D03*
D17*
X110275000Y-90475000D03*
X108775000Y-90475000D03*
X107100000Y-92380000D03*
X105600000Y-92380000D03*
X110275000Y-94285000D03*
X108775000Y-94285000D03*
D19*
X119050000Y-91020000D03*
X119050000Y-86120000D03*
X80950000Y-91020000D03*
X80950000Y-86120000D03*
D18*
X113335000Y-81700000D03*
X113335000Y-80200000D03*
X86665000Y-81700000D03*
X86665000Y-80200000D03*
X108255000Y-81700000D03*
X108255000Y-80200000D03*
D20*
X83262500Y-105500000D03*
X83262500Y-104500000D03*
X83262500Y-103500000D03*
X83262500Y-102500000D03*
D21*
X80737500Y-106800000D03*
X80737500Y-101200000D03*
D20*
X83262500Y-112000000D03*
X83262500Y-111000000D03*
X83262500Y-110000000D03*
D21*
X80737500Y-113300000D03*
X80737500Y-108700000D03*
D20*
X83262500Y-98000000D03*
X83262500Y-97000000D03*
X83262500Y-96000000D03*
D21*
X80737500Y-99300000D03*
X80737500Y-94700000D03*
D17*
X92250000Y-119500000D03*
X93750000Y-119500000D03*
D22*
X97500000Y-90780000D03*
X97500000Y-92380000D03*
X97500000Y-93980000D03*
X102500000Y-90780000D03*
X102500000Y-92380000D03*
X102500000Y-93980000D03*
D23*
X96300000Y-119685000D03*
X103700000Y-119685000D03*
D24*
X109110000Y-115810000D03*
X91110000Y-115810000D03*
D25*
X91110000Y-103810000D03*
D24*
X91110000Y-105310000D03*
X91110000Y-106810000D03*
X91110000Y-108310000D03*
X91110000Y-109810000D03*
X91110000Y-111310000D03*
X91110000Y-112810000D03*
X91110000Y-114310000D03*
X109110000Y-114310000D03*
X109110000Y-112810000D03*
X109110000Y-111310000D03*
X109110000Y-109810000D03*
X109110000Y-108310000D03*
X109110000Y-106810000D03*
X109110000Y-105310000D03*
X109110000Y-103810000D03*
D26*
X102540000Y-80315000D03*
X100000000Y-80315000D03*
X97460000Y-80315000D03*
D10*
G36*
X112999240Y-105648210D02*
X113499620Y-104898910D01*
X114500380Y-104898910D01*
X115000760Y-105648210D01*
X112999240Y-105648210D01*
X112999240Y-105648210D01*
G37*
D27*
X112498860Y-104148340D03*
X115501140Y-104148340D03*
X112498860Y-107851660D03*
D28*
X114000000Y-107851660D03*
D27*
X115501140Y-107851660D03*
D28*
X114000000Y-104148340D03*
D10*
G36*
X115000760Y-106351790D02*
X114500380Y-107101090D01*
X113499620Y-107101090D01*
X112999240Y-106351790D01*
X115000760Y-106351790D01*
X115000760Y-106351790D01*
G37*
D29*
X114000000Y-106000000D03*
D30*
X118000000Y-103000000D03*
D31*
X118000000Y-105540000D03*
X118000000Y-108080000D03*
X118000000Y-110620000D03*
D32*
X83442300Y-101565800D03*
X81605100Y-96771700D03*
X83695500Y-108631700D03*
X112283000Y-105696500D03*
X93310800Y-116650700D03*
D33*
X89330100Y-104927700D03*
X88077800Y-95537900D03*
X110186900Y-109090000D03*
X107620000Y-117578300D03*
X105351000Y-118868500D03*
X98915400Y-108567800D03*
X110550300Y-91626000D03*
X88889200Y-106006300D03*
X106375000Y-93003500D03*
X97122900Y-109810000D03*
X112029600Y-94315700D03*
X113176100Y-112772600D03*
X113303700Y-99780000D03*
X108079700Y-109061400D03*
X98702800Y-106353300D03*
X85315300Y-103500000D03*
X99450200Y-106554500D03*
X86673500Y-108694000D03*
X97646200Y-105310000D03*
X87802900Y-104212500D03*
D32*
X95532300Y-118160600D03*
D34*
X86250000Y-112000000D02*
X87250000Y-111000000D01*
X83262500Y-112000000D02*
X86250000Y-112000000D01*
X119750000Y-113273600D02*
X119750000Y-114000000D01*
X119516200Y-113039800D02*
X119750000Y-113273600D01*
X115501100Y-104148300D02*
X115501100Y-101751100D01*
X115501100Y-101751100D02*
X114750000Y-101000000D01*
X119516400Y-101863100D02*
X119289300Y-101636000D01*
X119516400Y-113039600D02*
X119516400Y-101863100D01*
X119516200Y-113039800D02*
X119516400Y-113039600D01*
X115616200Y-101636000D02*
X115501100Y-101751100D01*
X119289300Y-101636000D02*
X115616200Y-101636000D01*
X119500000Y-91470000D02*
X119500000Y-97000000D01*
X119050000Y-91020000D02*
X119500000Y-91470000D01*
X119500000Y-101425300D02*
X119289300Y-101636000D01*
X119500000Y-97000000D02*
X119500000Y-101425300D01*
X85750000Y-105500000D02*
X87000000Y-106750000D01*
X83262500Y-105500000D02*
X85750000Y-105500000D01*
X87373900Y-110876100D02*
X87250000Y-111000000D01*
X87373900Y-107123900D02*
X87373900Y-110876100D01*
X87000000Y-106750000D02*
X87373900Y-107123900D01*
X83262500Y-98000000D02*
X84537700Y-98000000D01*
X87558000Y-82593000D02*
X86665000Y-81700000D01*
X87558000Y-94328800D02*
X87558000Y-82593000D01*
X86729000Y-95157800D02*
X87558000Y-94328800D01*
X84632700Y-95157800D02*
X86729000Y-95157800D01*
X84632700Y-97905000D02*
X84632700Y-95157800D01*
X84537700Y-98000000D02*
X84632700Y-97905000D01*
X84632700Y-94702700D02*
X80950000Y-91020000D01*
X84632700Y-95157800D02*
X84632700Y-94702700D01*
X117731900Y-113039800D02*
X119516200Y-113039800D01*
X114008800Y-116762900D02*
X117731900Y-113039800D01*
X108101000Y-116762900D02*
X114008800Y-116762900D01*
X96648100Y-105310000D02*
X108101000Y-116762900D01*
X91110000Y-105310000D02*
X96648100Y-105310000D01*
X91110000Y-105310000D02*
X91110000Y-104227300D01*
X91110000Y-104227300D02*
X91110000Y-103810000D01*
X84537700Y-99875300D02*
X84537700Y-98000000D01*
X88889700Y-104227300D02*
X84537700Y-99875300D01*
X91110000Y-104227300D02*
X88889700Y-104227300D01*
X88206100Y-105543900D02*
X87000000Y-106750000D01*
X88206100Y-104910900D02*
X88206100Y-105543900D01*
X88889700Y-104227300D02*
X88206100Y-104910900D01*
X114000000Y-106726400D02*
X114000000Y-106000000D01*
X97500000Y-93980000D02*
X97500000Y-92380000D01*
X113335000Y-80200000D02*
X109230600Y-80200000D01*
X83262500Y-101745600D02*
X83442300Y-101565800D01*
X83262500Y-102500000D02*
X83262500Y-101745600D01*
X109230600Y-80200000D02*
X108255000Y-80200000D01*
X114000000Y-106726400D02*
X114000000Y-107851700D01*
X116500000Y-97750000D02*
X116500000Y-97000000D01*
X113250000Y-101000000D02*
X116500000Y-97750000D01*
X114363200Y-105636800D02*
X114000000Y-105273600D01*
X114460000Y-105540000D02*
X114363200Y-105636800D01*
X118000000Y-105540000D02*
X114460000Y-105540000D01*
X114363200Y-105636800D02*
X114000000Y-106000000D01*
X96300000Y-119685000D02*
X96492900Y-119685000D01*
X96492900Y-119685000D02*
X103700000Y-119685000D01*
X114000000Y-109250000D02*
X114750000Y-110000000D01*
X114000000Y-107851700D02*
X114000000Y-109250000D01*
X113849400Y-110900600D02*
X114750000Y-110000000D01*
X110889000Y-110900600D02*
X113849400Y-110900600D01*
X110479600Y-111310000D02*
X110889000Y-110900600D01*
X109110000Y-111310000D02*
X110479600Y-111310000D01*
X109536600Y-103810000D02*
X109110000Y-103810000D01*
X110889000Y-105162400D02*
X109536600Y-103810000D01*
X110889000Y-110900600D02*
X110889000Y-105162400D01*
X91169600Y-115750400D02*
X91110000Y-115810000D01*
X94422400Y-115750400D02*
X91169600Y-115750400D01*
X96492900Y-117820900D02*
X94422400Y-115750400D01*
X96492900Y-119685000D02*
X96492900Y-117820900D01*
X114000000Y-105273600D02*
X114000000Y-104148300D01*
X114000000Y-101750000D02*
X113250000Y-101000000D01*
X114000000Y-104148300D02*
X114000000Y-101750000D01*
X82376800Y-96000000D02*
X83262500Y-96000000D01*
X81605100Y-96771700D02*
X82376800Y-96000000D01*
X104963800Y-83316200D02*
X97500000Y-90780000D01*
X108119300Y-83316200D02*
X104963800Y-83316200D01*
X109230600Y-82204900D02*
X108119300Y-83316200D01*
X109230600Y-80200000D02*
X109230600Y-82204900D01*
X97500000Y-92110800D02*
X93330000Y-92110800D01*
X97500000Y-90780000D02*
X97500000Y-92110800D01*
X97500000Y-92110800D02*
X97500000Y-92380000D01*
X101400300Y-81715300D02*
X100000000Y-80315000D01*
X106739700Y-81715300D02*
X101400300Y-81715300D01*
X108255000Y-80200000D02*
X106739700Y-81715300D01*
X91796200Y-81751200D02*
X91745000Y-81700000D01*
X98563800Y-81751200D02*
X91796200Y-81751200D01*
X100000000Y-80315000D02*
X98563800Y-81751200D01*
X83262500Y-109064700D02*
X83262500Y-110000000D01*
X83695500Y-108631700D02*
X83262500Y-109064700D01*
X112283000Y-104364200D02*
X112498900Y-104148300D01*
X112283000Y-105696500D02*
X112283000Y-104364200D01*
X112498900Y-109248900D02*
X113250000Y-110000000D01*
X112498900Y-107851700D02*
X112498900Y-109248900D01*
X112283000Y-107635800D02*
X112283000Y-105696500D01*
X112498900Y-107851700D02*
X112283000Y-107635800D01*
X92250000Y-117711500D02*
X92250000Y-119500000D01*
X93310800Y-116650700D02*
X92250000Y-117711500D01*
X108470000Y-93980000D02*
X108775000Y-94285000D01*
X102500000Y-93980000D02*
X108470000Y-93980000D01*
X102500000Y-92380000D02*
X105600000Y-92380000D01*
X114184800Y-93650000D02*
X113970000Y-93650000D01*
X117299600Y-90535200D02*
X114184800Y-93650000D01*
X117299600Y-87870400D02*
X117299600Y-90535200D01*
X119050000Y-86120000D02*
X117299600Y-87870400D01*
D35*
X107297700Y-82657300D02*
X108255000Y-81700000D01*
X102944000Y-82657300D02*
X107297700Y-82657300D01*
X94432600Y-91168700D02*
X102944000Y-82657300D01*
X92372100Y-91168700D02*
X94432600Y-91168700D01*
X91430000Y-92110800D02*
X92372100Y-91168700D01*
X90891100Y-92110800D02*
X91430000Y-92110800D01*
X88077800Y-94924100D02*
X90891100Y-92110800D01*
X88077800Y-95537900D02*
X88077800Y-94924100D01*
X89330100Y-105190500D02*
X89330100Y-104927700D01*
X90949600Y-106810000D02*
X89330100Y-105190500D01*
X91110000Y-106810000D02*
X90949600Y-106810000D01*
X109406900Y-108310000D02*
X110186900Y-109090000D01*
X109110000Y-108310000D02*
X109406900Y-108310000D01*
X114671700Y-117578300D02*
X118250000Y-114000000D01*
X107620000Y-117578300D02*
X114671700Y-117578300D01*
X100792500Y-114310000D02*
X91110000Y-114310000D01*
X105351000Y-118868500D02*
X100792500Y-114310000D01*
X88750000Y-112081500D02*
X88750000Y-111000000D01*
X90978500Y-114310000D02*
X88750000Y-112081500D01*
X91110000Y-114310000D02*
X90978500Y-114310000D01*
X110275000Y-91350700D02*
X110275000Y-90475000D01*
X110550300Y-91626000D02*
X110275000Y-91350700D01*
X91367800Y-108567800D02*
X98915400Y-108567800D01*
X91110000Y-108310000D02*
X91367800Y-108567800D01*
X108080000Y-92380000D02*
X107100000Y-92380000D01*
X109376100Y-91083900D02*
X108080000Y-92380000D01*
X109376100Y-89724600D02*
X109376100Y-91083900D01*
X111837600Y-87263100D02*
X109376100Y-89724600D01*
X111837600Y-83197400D02*
X111837600Y-87263100D01*
X113335000Y-81700000D02*
X111837600Y-83197400D01*
X106476500Y-93003500D02*
X107100000Y-92380000D01*
X106375000Y-93003500D02*
X106476500Y-93003500D01*
X88889200Y-109245300D02*
X88889200Y-106006300D01*
X90953900Y-111310000D02*
X88889200Y-109245300D01*
X91110000Y-111310000D02*
X90953900Y-111310000D01*
X110305700Y-94315700D02*
X110275000Y-94285000D01*
X112029600Y-94315700D02*
X110305700Y-94315700D01*
X91110000Y-109810000D02*
X97122900Y-109810000D01*
X111638700Y-114310000D02*
X109110000Y-114310000D01*
X113176100Y-112772600D02*
X111638700Y-114310000D01*
X109859600Y-112060400D02*
X109110000Y-112810000D01*
X116559600Y-112060400D02*
X109859600Y-112060400D01*
X118000000Y-110620000D02*
X116559600Y-112060400D01*
X112649700Y-99126000D02*
X113303700Y-99780000D01*
X112649700Y-84682600D02*
X112649700Y-99126000D01*
X114094800Y-83237500D02*
X112649700Y-84682600D01*
X114094800Y-79798900D02*
X114094800Y-83237500D01*
X113895500Y-79599600D02*
X114094800Y-79798900D01*
X103255400Y-79599600D02*
X113895500Y-79599600D01*
X102540000Y-80315000D02*
X103255400Y-79599600D01*
X108361400Y-109061400D02*
X108079700Y-109061400D01*
X109110000Y-109810000D02*
X108361400Y-109061400D01*
X90969000Y-112810000D02*
X91110000Y-112810000D01*
X89327200Y-111168200D02*
X90969000Y-112810000D01*
X89327200Y-110430300D02*
X89327200Y-111168200D01*
X89146500Y-110249600D02*
X89327200Y-110430300D01*
X88361200Y-110249600D02*
X89146500Y-110249600D01*
X87974300Y-110636500D02*
X88361200Y-110249600D01*
X87974300Y-111410000D02*
X87974300Y-110636500D01*
X86740000Y-112644300D02*
X87974300Y-111410000D01*
X82336400Y-112644300D02*
X86740000Y-112644300D01*
X82165000Y-112472900D02*
X82336400Y-112644300D01*
X82165000Y-105059800D02*
X82165000Y-112472900D01*
X82724800Y-104500000D02*
X82165000Y-105059800D01*
X83262500Y-104500000D02*
X82724800Y-104500000D01*
X86250000Y-104500000D02*
X87000000Y-105250000D01*
X83262500Y-104500000D02*
X86250000Y-104500000D01*
X83262500Y-103500000D02*
X85315300Y-103500000D01*
X98702800Y-106514800D02*
X98702800Y-106353300D01*
X107998000Y-115810000D02*
X98702800Y-106514800D01*
X109110000Y-115810000D02*
X107998000Y-115810000D01*
X108854500Y-106554500D02*
X99450200Y-106554500D01*
X109110000Y-106810000D02*
X108854500Y-106554500D01*
X84367500Y-111000000D02*
X86673500Y-108694000D01*
X83262500Y-111000000D02*
X84367500Y-111000000D01*
X82709200Y-97000000D02*
X83262500Y-97000000D01*
X82149200Y-97560000D02*
X82709200Y-97000000D01*
X82149200Y-98558800D02*
X82149200Y-97560000D01*
X87802900Y-104212500D02*
X82149200Y-98558800D01*
X109110000Y-105310000D02*
X97646200Y-105310000D01*
D34*
X95089400Y-118160600D02*
X95532300Y-118160600D01*
X93750000Y-119500000D02*
X95089400Y-118160600D01*
X102805000Y-90475000D02*
X102500000Y-90780000D01*
X108775000Y-90475000D02*
X102805000Y-90475000D01*
X85860100Y-93650000D02*
X86030000Y-93650000D01*
X83817900Y-91607800D02*
X85860100Y-93650000D01*
X83817900Y-88987900D02*
X83817900Y-91607800D01*
X80950000Y-86120000D02*
X83817900Y-88987900D01*
X93650000Y-88841800D02*
X93650000Y-86030000D01*
X92380000Y-90111800D02*
X93650000Y-88841800D01*
D35*
X91745000Y-80200000D02*
X86665000Y-80200000D01*
X91860000Y-80315000D02*
X91745000Y-80200000D01*
X97460000Y-80315000D02*
X91860000Y-80315000D01*
M02*
