G04 #@! TF.FileFunction,Legend,Bot*
%FSLAX46Y46*%
G04 Gerber Fmt 4.6, Leading zero omitted, Abs format (unit mm)*
G04 Created by KiCad (PCBNEW 4.0.1-stable) date 2016/09/16 23:01:40*
%MOMM*%
G01*
G04 APERTURE LIST*
%ADD10C,0.100000*%
%ADD11C,0.150000*%
%ADD12C,0.010000*%
%ADD13C,2.600000*%
%ADD14C,2.200000*%
%ADD15R,2.400000X2.400000*%
%ADD16C,2.400000*%
%ADD17R,1.450000X1.050000*%
%ADD18O,2.400000X3.400000*%
%ADD19R,1.100000X3.400000*%
G04 APERTURE END LIST*
D10*
D11*
X110795000Y-120015000D02*
X108695000Y-120015000D01*
X108695000Y-120015000D02*
X108695000Y-116815000D01*
X108695000Y-116815000D02*
X112895000Y-116815000D01*
X112895000Y-116815000D02*
X112895000Y-120015000D01*
X112895000Y-120015000D02*
X110795000Y-120015000D01*
X103600000Y-119304000D02*
X103600000Y-115204000D01*
X103600000Y-119304000D02*
X103600000Y-123404000D01*
X103600000Y-123404000D02*
X96400000Y-123404000D01*
X96400000Y-123404000D02*
X96400000Y-115204000D01*
X96400000Y-115204000D02*
X103600000Y-115204000D01*
D12*
G36*
X102459851Y-105475506D02*
X102240587Y-105515444D01*
X102036728Y-105575446D01*
X101870056Y-105650141D01*
X101845345Y-105664947D01*
X101687275Y-105789493D01*
X101554539Y-105941845D01*
X101456808Y-106107317D01*
X101403756Y-106271221D01*
X101397000Y-106345746D01*
X101404191Y-106386110D01*
X101436322Y-106406309D01*
X101509229Y-106413059D01*
X101556747Y-106413500D01*
X101658277Y-106408278D01*
X101712272Y-106389378D01*
X101732553Y-106357937D01*
X101792191Y-106214061D01*
X101880724Y-106073140D01*
X101981376Y-105960221D01*
X102019212Y-105929934D01*
X102196846Y-105838730D01*
X102412453Y-105780028D01*
X102648501Y-105755479D01*
X102887461Y-105766735D01*
X103111801Y-105815447D01*
X103138557Y-105824469D01*
X103313746Y-105911307D01*
X103448741Y-106028473D01*
X103540347Y-106166517D01*
X103585368Y-106315989D01*
X103580609Y-106467441D01*
X103522872Y-106611422D01*
X103438906Y-106712556D01*
X103369960Y-106765766D01*
X103277632Y-106815863D01*
X103153882Y-106865763D01*
X102990667Y-106918384D01*
X102779944Y-106976640D01*
X102552473Y-107033991D01*
X102302976Y-107097294D01*
X102105180Y-107153421D01*
X101948295Y-107206467D01*
X101821533Y-107260530D01*
X101714102Y-107319706D01*
X101615214Y-107388091D01*
X101610650Y-107391558D01*
X101452594Y-107547594D01*
X101350933Y-107732340D01*
X101304880Y-107947415D01*
X101301750Y-108027362D01*
X101322539Y-108270498D01*
X101388537Y-108474376D01*
X101505195Y-108649248D01*
X101677961Y-108805369D01*
X101737614Y-108847443D01*
X101965709Y-108965337D01*
X102234258Y-109042604D01*
X102533742Y-109077794D01*
X102854639Y-109069456D01*
X103037846Y-109045618D01*
X103286811Y-108977222D01*
X103512777Y-108863193D01*
X103707678Y-108711166D01*
X103863450Y-108528774D01*
X103972025Y-108323651D01*
X104024438Y-108111833D01*
X104040509Y-107969250D01*
X103722060Y-107969250D01*
X103668869Y-108131870D01*
X103584676Y-108323083D01*
X103466022Y-108474730D01*
X103304012Y-108595206D01*
X103089752Y-108692907D01*
X103064975Y-108701795D01*
X102858405Y-108751199D01*
X102623726Y-108770096D01*
X102386242Y-108758611D01*
X102171255Y-108716869D01*
X102111195Y-108697086D01*
X101918512Y-108599140D01*
X101770561Y-108468934D01*
X101672287Y-108313673D01*
X101628641Y-108140558D01*
X101634715Y-108003429D01*
X101663693Y-107888995D01*
X101712923Y-107790579D01*
X101788522Y-107704574D01*
X101896606Y-107627376D01*
X102043289Y-107555379D01*
X102234687Y-107484980D01*
X102476915Y-107412572D01*
X102764494Y-107337441D01*
X103033027Y-107265947D01*
X103248237Y-107197777D01*
X103419885Y-107128998D01*
X103557731Y-107055675D01*
X103671538Y-106973876D01*
X103676001Y-106970142D01*
X103798873Y-106827223D01*
X103878785Y-106649260D01*
X103913556Y-106449881D01*
X103901006Y-106242718D01*
X103838954Y-106041401D01*
X103828222Y-106018578D01*
X103699187Y-105824974D01*
X103522082Y-105671649D01*
X103298582Y-105559409D01*
X103030360Y-105489062D01*
X102719090Y-105461416D01*
X102672737Y-105461000D01*
X102459851Y-105475506D01*
X102459851Y-105475506D01*
G37*
X102459851Y-105475506D02*
X102240587Y-105515444D01*
X102036728Y-105575446D01*
X101870056Y-105650141D01*
X101845345Y-105664947D01*
X101687275Y-105789493D01*
X101554539Y-105941845D01*
X101456808Y-106107317D01*
X101403756Y-106271221D01*
X101397000Y-106345746D01*
X101404191Y-106386110D01*
X101436322Y-106406309D01*
X101509229Y-106413059D01*
X101556747Y-106413500D01*
X101658277Y-106408278D01*
X101712272Y-106389378D01*
X101732553Y-106357937D01*
X101792191Y-106214061D01*
X101880724Y-106073140D01*
X101981376Y-105960221D01*
X102019212Y-105929934D01*
X102196846Y-105838730D01*
X102412453Y-105780028D01*
X102648501Y-105755479D01*
X102887461Y-105766735D01*
X103111801Y-105815447D01*
X103138557Y-105824469D01*
X103313746Y-105911307D01*
X103448741Y-106028473D01*
X103540347Y-106166517D01*
X103585368Y-106315989D01*
X103580609Y-106467441D01*
X103522872Y-106611422D01*
X103438906Y-106712556D01*
X103369960Y-106765766D01*
X103277632Y-106815863D01*
X103153882Y-106865763D01*
X102990667Y-106918384D01*
X102779944Y-106976640D01*
X102552473Y-107033991D01*
X102302976Y-107097294D01*
X102105180Y-107153421D01*
X101948295Y-107206467D01*
X101821533Y-107260530D01*
X101714102Y-107319706D01*
X101615214Y-107388091D01*
X101610650Y-107391558D01*
X101452594Y-107547594D01*
X101350933Y-107732340D01*
X101304880Y-107947415D01*
X101301750Y-108027362D01*
X101322539Y-108270498D01*
X101388537Y-108474376D01*
X101505195Y-108649248D01*
X101677961Y-108805369D01*
X101737614Y-108847443D01*
X101965709Y-108965337D01*
X102234258Y-109042604D01*
X102533742Y-109077794D01*
X102854639Y-109069456D01*
X103037846Y-109045618D01*
X103286811Y-108977222D01*
X103512777Y-108863193D01*
X103707678Y-108711166D01*
X103863450Y-108528774D01*
X103972025Y-108323651D01*
X104024438Y-108111833D01*
X104040509Y-107969250D01*
X103722060Y-107969250D01*
X103668869Y-108131870D01*
X103584676Y-108323083D01*
X103466022Y-108474730D01*
X103304012Y-108595206D01*
X103089752Y-108692907D01*
X103064975Y-108701795D01*
X102858405Y-108751199D01*
X102623726Y-108770096D01*
X102386242Y-108758611D01*
X102171255Y-108716869D01*
X102111195Y-108697086D01*
X101918512Y-108599140D01*
X101770561Y-108468934D01*
X101672287Y-108313673D01*
X101628641Y-108140558D01*
X101634715Y-108003429D01*
X101663693Y-107888995D01*
X101712923Y-107790579D01*
X101788522Y-107704574D01*
X101896606Y-107627376D01*
X102043289Y-107555379D01*
X102234687Y-107484980D01*
X102476915Y-107412572D01*
X102764494Y-107337441D01*
X103033027Y-107265947D01*
X103248237Y-107197777D01*
X103419885Y-107128998D01*
X103557731Y-107055675D01*
X103671538Y-106973876D01*
X103676001Y-106970142D01*
X103798873Y-106827223D01*
X103878785Y-106649260D01*
X103913556Y-106449881D01*
X103901006Y-106242718D01*
X103838954Y-106041401D01*
X103828222Y-106018578D01*
X103699187Y-105824974D01*
X103522082Y-105671649D01*
X103298582Y-105559409D01*
X103030360Y-105489062D01*
X102719090Y-105461416D01*
X102672737Y-105461000D01*
X102459851Y-105475506D01*
G36*
X97919935Y-106498842D02*
X97718649Y-106519252D01*
X97561076Y-106557869D01*
X97437774Y-106618455D01*
X97339303Y-106704775D01*
X97256221Y-106820591D01*
X97228421Y-106869931D01*
X97208931Y-106908759D01*
X97193332Y-106949384D01*
X97181105Y-106999199D01*
X97171729Y-107065597D01*
X97164687Y-107155970D01*
X97159458Y-107277712D01*
X97155524Y-107438215D01*
X97152365Y-107644872D01*
X97149462Y-107905077D01*
X97148422Y-108008937D01*
X97138468Y-109017000D01*
X97491750Y-109017000D01*
X97491750Y-108909271D01*
X97508202Y-108818174D01*
X97554717Y-108782141D01*
X97627037Y-108803383D01*
X97656412Y-108823784D01*
X97864898Y-108949216D01*
X98106861Y-109033766D01*
X98364707Y-109074289D01*
X98620839Y-109067639D01*
X98803974Y-109028963D01*
X98979642Y-108944429D01*
X99123328Y-108815154D01*
X99227274Y-108653357D01*
X99283725Y-108471260D01*
X99284651Y-108323857D01*
X98930238Y-108323857D01*
X98911775Y-108500647D01*
X98843229Y-108641620D01*
X98738705Y-108735681D01*
X98571295Y-108816656D01*
X98399480Y-108849852D01*
X98206919Y-108837084D01*
X98078173Y-108809042D01*
X97926862Y-108756823D01*
X97776619Y-108683252D01*
X97645901Y-108599115D01*
X97553166Y-108515201D01*
X97535744Y-108492037D01*
X97513173Y-108437668D01*
X97500431Y-108351855D01*
X97496446Y-108223061D01*
X97498535Y-108092126D01*
X97507625Y-107762875D01*
X97793375Y-107753326D01*
X98098104Y-107759114D01*
X98359950Y-107797249D01*
X98576036Y-107866286D01*
X98743485Y-107964782D01*
X98859420Y-108091292D01*
X98920965Y-108244374D01*
X98930238Y-108323857D01*
X99284651Y-108323857D01*
X99284921Y-108281082D01*
X99283674Y-108273266D01*
X99234703Y-108097257D01*
X99148617Y-107947827D01*
X99021865Y-107823299D01*
X98850901Y-107721998D01*
X98632175Y-107642246D01*
X98362139Y-107582367D01*
X98037243Y-107540684D01*
X97682250Y-107516759D01*
X97507625Y-107508875D01*
X97497471Y-107318375D01*
X97502768Y-107112331D01*
X97546170Y-106953735D01*
X97631956Y-106838036D01*
X97764407Y-106760684D01*
X97947803Y-106717127D01*
X98073605Y-106705840D01*
X98228920Y-106704032D01*
X98373377Y-106713318D01*
X98474849Y-106730584D01*
X98582784Y-106776610D01*
X98690187Y-106849729D01*
X98781649Y-106935994D01*
X98841760Y-107021455D01*
X98857000Y-107076514D01*
X98863639Y-107115237D01*
X98893716Y-107135409D01*
X98962474Y-107142900D01*
X99031625Y-107143750D01*
X99136822Y-107141233D01*
X99189138Y-107125409D01*
X99199183Y-107083869D01*
X99177572Y-107004203D01*
X99170116Y-106981800D01*
X99077647Y-106800606D01*
X98934232Y-106657292D01*
X98796897Y-106576351D01*
X98721012Y-106542804D01*
X98651838Y-106519664D01*
X98575097Y-106505016D01*
X98476509Y-106496945D01*
X98341797Y-106493538D01*
X98174375Y-106492875D01*
X97919935Y-106498842D01*
X97919935Y-106498842D01*
G37*
X97919935Y-106498842D02*
X97718649Y-106519252D01*
X97561076Y-106557869D01*
X97437774Y-106618455D01*
X97339303Y-106704775D01*
X97256221Y-106820591D01*
X97228421Y-106869931D01*
X97208931Y-106908759D01*
X97193332Y-106949384D01*
X97181105Y-106999199D01*
X97171729Y-107065597D01*
X97164687Y-107155970D01*
X97159458Y-107277712D01*
X97155524Y-107438215D01*
X97152365Y-107644872D01*
X97149462Y-107905077D01*
X97148422Y-108008937D01*
X97138468Y-109017000D01*
X97491750Y-109017000D01*
X97491750Y-108909271D01*
X97508202Y-108818174D01*
X97554717Y-108782141D01*
X97627037Y-108803383D01*
X97656412Y-108823784D01*
X97864898Y-108949216D01*
X98106861Y-109033766D01*
X98364707Y-109074289D01*
X98620839Y-109067639D01*
X98803974Y-109028963D01*
X98979642Y-108944429D01*
X99123328Y-108815154D01*
X99227274Y-108653357D01*
X99283725Y-108471260D01*
X99284651Y-108323857D01*
X98930238Y-108323857D01*
X98911775Y-108500647D01*
X98843229Y-108641620D01*
X98738705Y-108735681D01*
X98571295Y-108816656D01*
X98399480Y-108849852D01*
X98206919Y-108837084D01*
X98078173Y-108809042D01*
X97926862Y-108756823D01*
X97776619Y-108683252D01*
X97645901Y-108599115D01*
X97553166Y-108515201D01*
X97535744Y-108492037D01*
X97513173Y-108437668D01*
X97500431Y-108351855D01*
X97496446Y-108223061D01*
X97498535Y-108092126D01*
X97507625Y-107762875D01*
X97793375Y-107753326D01*
X98098104Y-107759114D01*
X98359950Y-107797249D01*
X98576036Y-107866286D01*
X98743485Y-107964782D01*
X98859420Y-108091292D01*
X98920965Y-108244374D01*
X98930238Y-108323857D01*
X99284651Y-108323857D01*
X99284921Y-108281082D01*
X99283674Y-108273266D01*
X99234703Y-108097257D01*
X99148617Y-107947827D01*
X99021865Y-107823299D01*
X98850901Y-107721998D01*
X98632175Y-107642246D01*
X98362139Y-107582367D01*
X98037243Y-107540684D01*
X97682250Y-107516759D01*
X97507625Y-107508875D01*
X97497471Y-107318375D01*
X97502768Y-107112331D01*
X97546170Y-106953735D01*
X97631956Y-106838036D01*
X97764407Y-106760684D01*
X97947803Y-106717127D01*
X98073605Y-106705840D01*
X98228920Y-106704032D01*
X98373377Y-106713318D01*
X98474849Y-106730584D01*
X98582784Y-106776610D01*
X98690187Y-106849729D01*
X98781649Y-106935994D01*
X98841760Y-107021455D01*
X98857000Y-107076514D01*
X98863639Y-107115237D01*
X98893716Y-107135409D01*
X98962474Y-107142900D01*
X99031625Y-107143750D01*
X99136822Y-107141233D01*
X99189138Y-107125409D01*
X99199183Y-107083869D01*
X99177572Y-107004203D01*
X99170116Y-106981800D01*
X99077647Y-106800606D01*
X98934232Y-106657292D01*
X98796897Y-106576351D01*
X98721012Y-106542804D01*
X98651838Y-106519664D01*
X98575097Y-106505016D01*
X98476509Y-106496945D01*
X98341797Y-106493538D01*
X98174375Y-106492875D01*
X97919935Y-106498842D01*
G36*
X92525713Y-106491646D02*
X92312813Y-106539449D01*
X92218505Y-106576269D01*
X92001109Y-106708777D01*
X91830299Y-106881727D01*
X91705530Y-107096258D01*
X91626257Y-107353504D01*
X91591934Y-107654604D01*
X91593675Y-107878617D01*
X91629019Y-108182385D01*
X91704172Y-108438379D01*
X91820930Y-108649693D01*
X91981088Y-108819419D01*
X92186442Y-108950649D01*
X92227585Y-108970079D01*
X92425459Y-109034807D01*
X92650702Y-109069395D01*
X92877012Y-109071722D01*
X93078081Y-109039664D01*
X93080744Y-109038918D01*
X93326986Y-108939586D01*
X93531192Y-108793479D01*
X93692142Y-108602466D01*
X93808614Y-108368418D01*
X93879389Y-108093204D01*
X93901796Y-107797873D01*
X93538875Y-107797873D01*
X93538163Y-107961428D01*
X93533957Y-108078288D01*
X93523156Y-108165257D01*
X93502660Y-108239137D01*
X93469368Y-108316734D01*
X93427750Y-108400010D01*
X93339683Y-108550618D01*
X93248915Y-108655921D01*
X93182572Y-108707830D01*
X92985924Y-108803359D01*
X92775158Y-108839272D01*
X92559200Y-108815120D01*
X92380000Y-108747932D01*
X92213891Y-108629465D01*
X92086306Y-108461696D01*
X91997929Y-108246315D01*
X91949441Y-107985012D01*
X91941525Y-107679477D01*
X91942199Y-107663225D01*
X91952303Y-107498954D01*
X91968237Y-107377720D01*
X91994136Y-107279084D01*
X92034132Y-107182604D01*
X92043202Y-107163779D01*
X92165989Y-106974408D01*
X92320337Y-106832474D01*
X92497111Y-106739771D01*
X92687179Y-106698092D01*
X92881407Y-106709229D01*
X93070661Y-106774976D01*
X93245809Y-106897126D01*
X93272365Y-106922474D01*
X93374590Y-107038871D01*
X93448401Y-107162109D01*
X93497665Y-107304883D01*
X93526246Y-107479890D01*
X93538010Y-107699827D01*
X93538875Y-107797873D01*
X93901796Y-107797873D01*
X93903247Y-107778750D01*
X93879549Y-107465605D01*
X93809567Y-107189530D01*
X93694970Y-106953407D01*
X93537425Y-106760120D01*
X93338601Y-106612553D01*
X93188020Y-106542517D01*
X92987014Y-106492355D01*
X92758346Y-106475673D01*
X92525713Y-106491646D01*
X92525713Y-106491646D01*
G37*
X92525713Y-106491646D02*
X92312813Y-106539449D01*
X92218505Y-106576269D01*
X92001109Y-106708777D01*
X91830299Y-106881727D01*
X91705530Y-107096258D01*
X91626257Y-107353504D01*
X91591934Y-107654604D01*
X91593675Y-107878617D01*
X91629019Y-108182385D01*
X91704172Y-108438379D01*
X91820930Y-108649693D01*
X91981088Y-108819419D01*
X92186442Y-108950649D01*
X92227585Y-108970079D01*
X92425459Y-109034807D01*
X92650702Y-109069395D01*
X92877012Y-109071722D01*
X93078081Y-109039664D01*
X93080744Y-109038918D01*
X93326986Y-108939586D01*
X93531192Y-108793479D01*
X93692142Y-108602466D01*
X93808614Y-108368418D01*
X93879389Y-108093204D01*
X93901796Y-107797873D01*
X93538875Y-107797873D01*
X93538163Y-107961428D01*
X93533957Y-108078288D01*
X93523156Y-108165257D01*
X93502660Y-108239137D01*
X93469368Y-108316734D01*
X93427750Y-108400010D01*
X93339683Y-108550618D01*
X93248915Y-108655921D01*
X93182572Y-108707830D01*
X92985924Y-108803359D01*
X92775158Y-108839272D01*
X92559200Y-108815120D01*
X92380000Y-108747932D01*
X92213891Y-108629465D01*
X92086306Y-108461696D01*
X91997929Y-108246315D01*
X91949441Y-107985012D01*
X91941525Y-107679477D01*
X91942199Y-107663225D01*
X91952303Y-107498954D01*
X91968237Y-107377720D01*
X91994136Y-107279084D01*
X92034132Y-107182604D01*
X92043202Y-107163779D01*
X92165989Y-106974408D01*
X92320337Y-106832474D01*
X92497111Y-106739771D01*
X92687179Y-106698092D01*
X92881407Y-106709229D01*
X93070661Y-106774976D01*
X93245809Y-106897126D01*
X93272365Y-106922474D01*
X93374590Y-107038871D01*
X93448401Y-107162109D01*
X93497665Y-107304883D01*
X93526246Y-107479890D01*
X93538010Y-107699827D01*
X93538875Y-107797873D01*
X93901796Y-107797873D01*
X93903247Y-107778750D01*
X93879549Y-107465605D01*
X93809567Y-107189530D01*
X93694970Y-106953407D01*
X93537425Y-106760120D01*
X93338601Y-106612553D01*
X93188020Y-106542517D01*
X92987014Y-106492355D01*
X92758346Y-106475673D01*
X92525713Y-106491646D01*
G36*
X100120213Y-106183312D02*
X100111125Y-106492875D01*
X99912688Y-106502327D01*
X99714250Y-106511780D01*
X99714250Y-106759719D01*
X99912688Y-106769172D01*
X100111125Y-106778625D01*
X100119601Y-107667625D01*
X100121367Y-107972866D01*
X100120190Y-108217780D01*
X100115980Y-108405472D01*
X100108647Y-108539049D01*
X100098102Y-108621620D01*
X100091317Y-108645434D01*
X100019374Y-108741002D01*
X99903972Y-108804183D01*
X99763452Y-108826500D01*
X99688276Y-108831225D01*
X99657169Y-108858124D01*
X99650776Y-108926282D01*
X99650750Y-108937625D01*
X99650750Y-109048750D01*
X99880938Y-109045066D01*
X100004366Y-109041164D01*
X100109275Y-109034424D01*
X100173520Y-109026282D01*
X100174625Y-109026022D01*
X100257519Y-108984427D01*
X100347065Y-108908166D01*
X100419134Y-108818113D01*
X100423603Y-108810625D01*
X100436410Y-108756882D01*
X100447762Y-108642069D01*
X100457687Y-108465644D01*
X100466212Y-108227067D01*
X100473364Y-107925797D01*
X100476250Y-107762875D01*
X100492125Y-106778625D01*
X100642938Y-106768947D01*
X100793750Y-106759270D01*
X100793750Y-106512229D01*
X100642938Y-106502552D01*
X100492125Y-106492875D01*
X100483038Y-106183312D01*
X100473951Y-105873750D01*
X100129300Y-105873750D01*
X100120213Y-106183312D01*
X100120213Y-106183312D01*
G37*
X100120213Y-106183312D02*
X100111125Y-106492875D01*
X99912688Y-106502327D01*
X99714250Y-106511780D01*
X99714250Y-106759719D01*
X99912688Y-106769172D01*
X100111125Y-106778625D01*
X100119601Y-107667625D01*
X100121367Y-107972866D01*
X100120190Y-108217780D01*
X100115980Y-108405472D01*
X100108647Y-108539049D01*
X100098102Y-108621620D01*
X100091317Y-108645434D01*
X100019374Y-108741002D01*
X99903972Y-108804183D01*
X99763452Y-108826500D01*
X99688276Y-108831225D01*
X99657169Y-108858124D01*
X99650776Y-108926282D01*
X99650750Y-108937625D01*
X99650750Y-109048750D01*
X99880938Y-109045066D01*
X100004366Y-109041164D01*
X100109275Y-109034424D01*
X100173520Y-109026282D01*
X100174625Y-109026022D01*
X100257519Y-108984427D01*
X100347065Y-108908166D01*
X100419134Y-108818113D01*
X100423603Y-108810625D01*
X100436410Y-108756882D01*
X100447762Y-108642069D01*
X100457687Y-108465644D01*
X100466212Y-108227067D01*
X100473364Y-107925797D01*
X100476250Y-107762875D01*
X100492125Y-106778625D01*
X100642938Y-106768947D01*
X100793750Y-106759270D01*
X100793750Y-106512229D01*
X100642938Y-106502552D01*
X100492125Y-106492875D01*
X100483038Y-106183312D01*
X100473951Y-105873750D01*
X100129300Y-105873750D01*
X100120213Y-106183312D01*
G36*
X95897463Y-106183312D02*
X95888375Y-106492875D01*
X95689938Y-106502327D01*
X95491500Y-106511780D01*
X95491500Y-106759719D01*
X95689938Y-106769172D01*
X95888375Y-106778625D01*
X95896851Y-107667625D01*
X95898617Y-107972866D01*
X95897440Y-108217780D01*
X95893230Y-108405472D01*
X95885897Y-108539049D01*
X95875352Y-108621620D01*
X95868567Y-108645434D01*
X95796624Y-108741002D01*
X95681222Y-108804183D01*
X95540702Y-108826500D01*
X95465526Y-108831225D01*
X95434419Y-108858124D01*
X95428026Y-108926282D01*
X95428000Y-108937625D01*
X95428000Y-109048750D01*
X95658188Y-109045066D01*
X95781616Y-109041164D01*
X95886525Y-109034424D01*
X95950770Y-109026282D01*
X95951875Y-109026022D01*
X96034769Y-108984427D01*
X96124315Y-108908166D01*
X96196384Y-108818113D01*
X96200853Y-108810625D01*
X96213660Y-108756882D01*
X96225012Y-108642069D01*
X96234937Y-108465644D01*
X96243462Y-108227067D01*
X96250614Y-107925797D01*
X96253500Y-107762875D01*
X96269375Y-106778625D01*
X96420188Y-106768947D01*
X96571000Y-106759270D01*
X96571000Y-106512229D01*
X96420188Y-106502552D01*
X96269375Y-106492875D01*
X96260288Y-106183312D01*
X96251201Y-105873750D01*
X95906550Y-105873750D01*
X95897463Y-106183312D01*
X95897463Y-106183312D01*
G37*
X95897463Y-106183312D02*
X95888375Y-106492875D01*
X95689938Y-106502327D01*
X95491500Y-106511780D01*
X95491500Y-106759719D01*
X95689938Y-106769172D01*
X95888375Y-106778625D01*
X95896851Y-107667625D01*
X95898617Y-107972866D01*
X95897440Y-108217780D01*
X95893230Y-108405472D01*
X95885897Y-108539049D01*
X95875352Y-108621620D01*
X95868567Y-108645434D01*
X95796624Y-108741002D01*
X95681222Y-108804183D01*
X95540702Y-108826500D01*
X95465526Y-108831225D01*
X95434419Y-108858124D01*
X95428026Y-108926282D01*
X95428000Y-108937625D01*
X95428000Y-109048750D01*
X95658188Y-109045066D01*
X95781616Y-109041164D01*
X95886525Y-109034424D01*
X95950770Y-109026282D01*
X95951875Y-109026022D01*
X96034769Y-108984427D01*
X96124315Y-108908166D01*
X96196384Y-108818113D01*
X96200853Y-108810625D01*
X96213660Y-108756882D01*
X96225012Y-108642069D01*
X96234937Y-108465644D01*
X96243462Y-108227067D01*
X96250614Y-107925797D01*
X96253500Y-107762875D01*
X96269375Y-106778625D01*
X96420188Y-106768947D01*
X96571000Y-106759270D01*
X96571000Y-106512229D01*
X96420188Y-106502552D01*
X96269375Y-106492875D01*
X96260288Y-106183312D01*
X96251201Y-105873750D01*
X95906550Y-105873750D01*
X95897463Y-106183312D01*
G36*
X110223500Y-109017000D02*
X110572750Y-109017000D01*
X110572750Y-105524500D01*
X110223500Y-105524500D01*
X110223500Y-109017000D01*
X110223500Y-109017000D01*
G37*
X110223500Y-109017000D02*
X110572750Y-109017000D01*
X110572750Y-105524500D01*
X110223500Y-105524500D01*
X110223500Y-109017000D01*
G36*
X107978745Y-105525505D02*
X107705590Y-105529268D01*
X107482069Y-105536906D01*
X107301260Y-105549537D01*
X107156241Y-105568278D01*
X107040089Y-105594248D01*
X106945883Y-105628565D01*
X106866700Y-105672347D01*
X106795618Y-105726711D01*
X106740853Y-105777665D01*
X106626243Y-105912598D01*
X106550314Y-106059798D01*
X106507695Y-106234465D01*
X106493015Y-106451803D01*
X106492875Y-106479544D01*
X106494377Y-106625257D01*
X106501516Y-106726406D01*
X106518243Y-106801904D01*
X106548510Y-106870665D01*
X106589051Y-106939919D01*
X106708922Y-107087495D01*
X106867180Y-107216703D01*
X107040564Y-107310037D01*
X107113602Y-107334681D01*
X107218203Y-107373557D01*
X107259892Y-107417321D01*
X107239121Y-107466704D01*
X107209855Y-107490721D01*
X107073160Y-107596358D01*
X106948322Y-107711466D01*
X106853292Y-107818890D01*
X106827481Y-107856134D01*
X106800026Y-107911209D01*
X106756494Y-108010735D01*
X106701492Y-108142949D01*
X106639632Y-108296086D01*
X106575523Y-108458383D01*
X106513774Y-108618076D01*
X106458995Y-108763402D01*
X106415795Y-108882597D01*
X106388785Y-108963897D01*
X106381921Y-108993187D01*
X106410639Y-109005866D01*
X106485320Y-109014503D01*
X106568122Y-109017000D01*
X106754494Y-109017000D01*
X106934544Y-108499890D01*
X107025760Y-108249706D01*
X107108609Y-108052230D01*
X107188952Y-107898285D01*
X107272649Y-107778693D01*
X107365558Y-107684276D01*
X107473541Y-107605857D01*
X107524750Y-107575511D01*
X107589496Y-107539911D01*
X107645950Y-107513944D01*
X107705752Y-107495857D01*
X107780543Y-107483897D01*
X107881961Y-107476313D01*
X108021646Y-107471353D01*
X108211238Y-107467263D01*
X108248560Y-107466541D01*
X108472614Y-107463801D01*
X108639002Y-107465575D01*
X108753414Y-107472130D01*
X108821541Y-107483729D01*
X108843872Y-107494242D01*
X108858988Y-107516830D01*
X108870535Y-107561202D01*
X108878949Y-107634706D01*
X108884662Y-107744688D01*
X108888110Y-107898498D01*
X108889726Y-108103484D01*
X108890000Y-108274762D01*
X108890000Y-109017000D01*
X109239250Y-109017000D01*
X109239250Y-106434184D01*
X108892173Y-106434184D01*
X108891396Y-106614737D01*
X108887675Y-106786037D01*
X108881011Y-106935967D01*
X108871402Y-107052415D01*
X108858850Y-107123264D01*
X108851900Y-107137400D01*
X108807018Y-107151015D01*
X108710151Y-107161693D01*
X108572747Y-107169399D01*
X108406255Y-107174098D01*
X108222123Y-107175757D01*
X108031800Y-107174342D01*
X107846734Y-107169817D01*
X107678374Y-107162150D01*
X107538168Y-107151305D01*
X107461322Y-107141550D01*
X107234389Y-107083929D01*
X107060152Y-106992309D01*
X106936615Y-106864955D01*
X106861782Y-106700130D01*
X106842010Y-106603158D01*
X106838176Y-106382288D01*
X106888868Y-106189523D01*
X106991108Y-106029645D01*
X107141915Y-105907438D01*
X107322580Y-105831940D01*
X107415884Y-105814300D01*
X107551859Y-105799751D01*
X107719334Y-105788405D01*
X107907141Y-105780375D01*
X108104108Y-105775772D01*
X108299066Y-105774708D01*
X108480846Y-105777297D01*
X108638277Y-105783648D01*
X108760190Y-105793876D01*
X108835415Y-105808091D01*
X108851900Y-105816599D01*
X108865843Y-105861710D01*
X108876841Y-105958139D01*
X108884895Y-106093770D01*
X108890006Y-106256489D01*
X108892173Y-106434184D01*
X109239250Y-106434184D01*
X109239250Y-105524500D01*
X108308457Y-105524500D01*
X107978745Y-105525505D01*
X107978745Y-105525505D01*
G37*
X107978745Y-105525505D02*
X107705590Y-105529268D01*
X107482069Y-105536906D01*
X107301260Y-105549537D01*
X107156241Y-105568278D01*
X107040089Y-105594248D01*
X106945883Y-105628565D01*
X106866700Y-105672347D01*
X106795618Y-105726711D01*
X106740853Y-105777665D01*
X106626243Y-105912598D01*
X106550314Y-106059798D01*
X106507695Y-106234465D01*
X106493015Y-106451803D01*
X106492875Y-106479544D01*
X106494377Y-106625257D01*
X106501516Y-106726406D01*
X106518243Y-106801904D01*
X106548510Y-106870665D01*
X106589051Y-106939919D01*
X106708922Y-107087495D01*
X106867180Y-107216703D01*
X107040564Y-107310037D01*
X107113602Y-107334681D01*
X107218203Y-107373557D01*
X107259892Y-107417321D01*
X107239121Y-107466704D01*
X107209855Y-107490721D01*
X107073160Y-107596358D01*
X106948322Y-107711466D01*
X106853292Y-107818890D01*
X106827481Y-107856134D01*
X106800026Y-107911209D01*
X106756494Y-108010735D01*
X106701492Y-108142949D01*
X106639632Y-108296086D01*
X106575523Y-108458383D01*
X106513774Y-108618076D01*
X106458995Y-108763402D01*
X106415795Y-108882597D01*
X106388785Y-108963897D01*
X106381921Y-108993187D01*
X106410639Y-109005866D01*
X106485320Y-109014503D01*
X106568122Y-109017000D01*
X106754494Y-109017000D01*
X106934544Y-108499890D01*
X107025760Y-108249706D01*
X107108609Y-108052230D01*
X107188952Y-107898285D01*
X107272649Y-107778693D01*
X107365558Y-107684276D01*
X107473541Y-107605857D01*
X107524750Y-107575511D01*
X107589496Y-107539911D01*
X107645950Y-107513944D01*
X107705752Y-107495857D01*
X107780543Y-107483897D01*
X107881961Y-107476313D01*
X108021646Y-107471353D01*
X108211238Y-107467263D01*
X108248560Y-107466541D01*
X108472614Y-107463801D01*
X108639002Y-107465575D01*
X108753414Y-107472130D01*
X108821541Y-107483729D01*
X108843872Y-107494242D01*
X108858988Y-107516830D01*
X108870535Y-107561202D01*
X108878949Y-107634706D01*
X108884662Y-107744688D01*
X108888110Y-107898498D01*
X108889726Y-108103484D01*
X108890000Y-108274762D01*
X108890000Y-109017000D01*
X109239250Y-109017000D01*
X109239250Y-106434184D01*
X108892173Y-106434184D01*
X108891396Y-106614737D01*
X108887675Y-106786037D01*
X108881011Y-106935967D01*
X108871402Y-107052415D01*
X108858850Y-107123264D01*
X108851900Y-107137400D01*
X108807018Y-107151015D01*
X108710151Y-107161693D01*
X108572747Y-107169399D01*
X108406255Y-107174098D01*
X108222123Y-107175757D01*
X108031800Y-107174342D01*
X107846734Y-107169817D01*
X107678374Y-107162150D01*
X107538168Y-107151305D01*
X107461322Y-107141550D01*
X107234389Y-107083929D01*
X107060152Y-106992309D01*
X106936615Y-106864955D01*
X106861782Y-106700130D01*
X106842010Y-106603158D01*
X106838176Y-106382288D01*
X106888868Y-106189523D01*
X106991108Y-106029645D01*
X107141915Y-105907438D01*
X107322580Y-105831940D01*
X107415884Y-105814300D01*
X107551859Y-105799751D01*
X107719334Y-105788405D01*
X107907141Y-105780375D01*
X108104108Y-105775772D01*
X108299066Y-105774708D01*
X108480846Y-105777297D01*
X108638277Y-105783648D01*
X108760190Y-105793876D01*
X108835415Y-105808091D01*
X108851900Y-105816599D01*
X108865843Y-105861710D01*
X108876841Y-105958139D01*
X108884895Y-106093770D01*
X108890006Y-106256489D01*
X108892173Y-106434184D01*
X109239250Y-106434184D01*
X109239250Y-105524500D01*
X108308457Y-105524500D01*
X107978745Y-105525505D01*
G36*
X94721563Y-106515028D02*
X94554875Y-106524625D01*
X94546569Y-107770812D01*
X94538263Y-109017000D01*
X94888250Y-109017000D01*
X94888250Y-106505431D01*
X94721563Y-106515028D01*
X94721563Y-106515028D01*
G37*
X94721563Y-106515028D02*
X94554875Y-106524625D01*
X94546569Y-107770812D01*
X94538263Y-109017000D01*
X94888250Y-109017000D01*
X94888250Y-106505431D01*
X94721563Y-106515028D01*
G36*
X89650528Y-106482845D02*
X89479568Y-106496766D01*
X89356522Y-106521423D01*
X89266922Y-106559455D01*
X89147763Y-106657171D01*
X89041950Y-106793869D01*
X88966916Y-106945163D01*
X88949677Y-107003214D01*
X88942276Y-107066369D01*
X88935523Y-107183799D01*
X88929674Y-107346278D01*
X88924986Y-107544583D01*
X88921715Y-107769490D01*
X88920115Y-108011773D01*
X88920008Y-108072437D01*
X88919250Y-109017000D01*
X89232561Y-109017000D01*
X89242593Y-108056562D01*
X89245861Y-107769800D01*
X89249809Y-107539127D01*
X89255597Y-107357137D01*
X89264387Y-107216420D01*
X89277339Y-107109569D01*
X89295612Y-107029175D01*
X89320367Y-106967831D01*
X89352765Y-106918127D01*
X89393966Y-106872657D01*
X89434029Y-106834364D01*
X89537424Y-106772438D01*
X89677558Y-106733616D01*
X89830399Y-106722582D01*
X89940345Y-106735679D01*
X90093045Y-106782665D01*
X90230328Y-106856460D01*
X90373362Y-106969198D01*
X90416492Y-107008616D01*
X90570250Y-107152439D01*
X90570250Y-109017000D01*
X90919500Y-109017000D01*
X90919500Y-106505431D01*
X90752813Y-106515028D01*
X90586125Y-106524625D01*
X90576497Y-106656814D01*
X90557370Y-106759617D01*
X90516884Y-106805163D01*
X90451605Y-106794254D01*
X90358097Y-106727693D01*
X90340305Y-106711949D01*
X90190330Y-106594636D01*
X90040882Y-106521493D01*
X89872703Y-106486123D01*
X89666535Y-106482131D01*
X89650528Y-106482845D01*
X89650528Y-106482845D01*
G37*
X89650528Y-106482845D02*
X89479568Y-106496766D01*
X89356522Y-106521423D01*
X89266922Y-106559455D01*
X89147763Y-106657171D01*
X89041950Y-106793869D01*
X88966916Y-106945163D01*
X88949677Y-107003214D01*
X88942276Y-107066369D01*
X88935523Y-107183799D01*
X88929674Y-107346278D01*
X88924986Y-107544583D01*
X88921715Y-107769490D01*
X88920115Y-108011773D01*
X88920008Y-108072437D01*
X88919250Y-109017000D01*
X89232561Y-109017000D01*
X89242593Y-108056562D01*
X89245861Y-107769800D01*
X89249809Y-107539127D01*
X89255597Y-107357137D01*
X89264387Y-107216420D01*
X89277339Y-107109569D01*
X89295612Y-107029175D01*
X89320367Y-106967831D01*
X89352765Y-106918127D01*
X89393966Y-106872657D01*
X89434029Y-106834364D01*
X89537424Y-106772438D01*
X89677558Y-106733616D01*
X89830399Y-106722582D01*
X89940345Y-106735679D01*
X90093045Y-106782665D01*
X90230328Y-106856460D01*
X90373362Y-106969198D01*
X90416492Y-107008616D01*
X90570250Y-107152439D01*
X90570250Y-109017000D01*
X90919500Y-109017000D01*
X90919500Y-106505431D01*
X90752813Y-106515028D01*
X90586125Y-106524625D01*
X90576497Y-106656814D01*
X90557370Y-106759617D01*
X90516884Y-106805163D01*
X90451605Y-106794254D01*
X90358097Y-106727693D01*
X90340305Y-106711949D01*
X90190330Y-106594636D01*
X90040882Y-106521493D01*
X89872703Y-106486123D01*
X89666535Y-106482131D01*
X89650528Y-106482845D01*
G36*
X104572000Y-107937500D02*
X105810250Y-107937500D01*
X105810250Y-107620000D01*
X104572000Y-107620000D01*
X104572000Y-107937500D01*
X104572000Y-107937500D01*
G37*
X104572000Y-107937500D02*
X105810250Y-107937500D01*
X105810250Y-107620000D01*
X104572000Y-107620000D01*
X104572000Y-107937500D01*
G36*
X94539000Y-105873750D02*
X94888250Y-105873750D01*
X94888250Y-105524500D01*
X94539000Y-105524500D01*
X94539000Y-105873750D01*
X94539000Y-105873750D01*
G37*
X94539000Y-105873750D02*
X94888250Y-105873750D01*
X94888250Y-105524500D01*
X94539000Y-105524500D01*
X94539000Y-105873750D01*
G36*
X103963634Y-95456847D02*
X103937000Y-95459251D01*
X103484146Y-95513512D01*
X103066580Y-95591740D01*
X102658918Y-95699181D01*
X102444750Y-95767552D01*
X101857508Y-95998014D01*
X101301651Y-96282157D01*
X100780232Y-96616951D01*
X100296300Y-96999368D01*
X99852906Y-97426377D01*
X99453100Y-97894949D01*
X99099934Y-98402055D01*
X98796456Y-98944667D01*
X98545719Y-99519754D01*
X98478453Y-99706257D01*
X98326147Y-100216130D01*
X98219846Y-100730450D01*
X98154621Y-101273077D01*
X98154529Y-101274197D01*
X98138235Y-101572714D01*
X98144570Y-101820370D01*
X98176005Y-102026519D01*
X98235008Y-102200515D01*
X98324049Y-102351712D01*
X98445598Y-102489464D01*
X98485084Y-102526261D01*
X98687428Y-102667113D01*
X98917713Y-102757276D01*
X99162631Y-102794292D01*
X99408875Y-102775699D01*
X99575930Y-102727888D01*
X99783946Y-102615258D01*
X99965020Y-102452127D01*
X100107189Y-102249705D01*
X100126886Y-102211668D01*
X100167913Y-102122709D01*
X100197275Y-102040016D01*
X100218144Y-101947880D01*
X100233688Y-101830591D01*
X100247079Y-101672438D01*
X100253076Y-101586277D01*
X100268487Y-101399009D01*
X100289055Y-101207354D01*
X100312066Y-101034121D01*
X100334229Y-100904875D01*
X100466333Y-100419477D01*
X100655989Y-99955557D01*
X100899435Y-99518075D01*
X101192910Y-99111988D01*
X101532652Y-98742253D01*
X101914900Y-98413830D01*
X102335892Y-98131676D01*
X102512314Y-98033915D01*
X102867716Y-97865767D01*
X103219662Y-97737695D01*
X103585041Y-97645155D01*
X103980742Y-97583599D01*
X104286446Y-97556404D01*
X104465669Y-97543210D01*
X104597483Y-97529067D01*
X104697936Y-97510699D01*
X104783076Y-97484829D01*
X104868952Y-97448180D01*
X104907428Y-97429608D01*
X105128219Y-97288870D01*
X105298501Y-97110876D01*
X105415853Y-96899764D01*
X105477853Y-96659671D01*
X105485562Y-96441736D01*
X105442610Y-96181122D01*
X105346027Y-95952203D01*
X105198183Y-95758680D01*
X105001448Y-95604254D01*
X104920616Y-95559695D01*
X104775149Y-95498724D01*
X104619145Y-95459223D01*
X104440177Y-95439923D01*
X104225816Y-95439554D01*
X103963634Y-95456847D01*
X103963634Y-95456847D01*
G37*
X103963634Y-95456847D02*
X103937000Y-95459251D01*
X103484146Y-95513512D01*
X103066580Y-95591740D01*
X102658918Y-95699181D01*
X102444750Y-95767552D01*
X101857508Y-95998014D01*
X101301651Y-96282157D01*
X100780232Y-96616951D01*
X100296300Y-96999368D01*
X99852906Y-97426377D01*
X99453100Y-97894949D01*
X99099934Y-98402055D01*
X98796456Y-98944667D01*
X98545719Y-99519754D01*
X98478453Y-99706257D01*
X98326147Y-100216130D01*
X98219846Y-100730450D01*
X98154621Y-101273077D01*
X98154529Y-101274197D01*
X98138235Y-101572714D01*
X98144570Y-101820370D01*
X98176005Y-102026519D01*
X98235008Y-102200515D01*
X98324049Y-102351712D01*
X98445598Y-102489464D01*
X98485084Y-102526261D01*
X98687428Y-102667113D01*
X98917713Y-102757276D01*
X99162631Y-102794292D01*
X99408875Y-102775699D01*
X99575930Y-102727888D01*
X99783946Y-102615258D01*
X99965020Y-102452127D01*
X100107189Y-102249705D01*
X100126886Y-102211668D01*
X100167913Y-102122709D01*
X100197275Y-102040016D01*
X100218144Y-101947880D01*
X100233688Y-101830591D01*
X100247079Y-101672438D01*
X100253076Y-101586277D01*
X100268487Y-101399009D01*
X100289055Y-101207354D01*
X100312066Y-101034121D01*
X100334229Y-100904875D01*
X100466333Y-100419477D01*
X100655989Y-99955557D01*
X100899435Y-99518075D01*
X101192910Y-99111988D01*
X101532652Y-98742253D01*
X101914900Y-98413830D01*
X102335892Y-98131676D01*
X102512314Y-98033915D01*
X102867716Y-97865767D01*
X103219662Y-97737695D01*
X103585041Y-97645155D01*
X103980742Y-97583599D01*
X104286446Y-97556404D01*
X104465669Y-97543210D01*
X104597483Y-97529067D01*
X104697936Y-97510699D01*
X104783076Y-97484829D01*
X104868952Y-97448180D01*
X104907428Y-97429608D01*
X105128219Y-97288870D01*
X105298501Y-97110876D01*
X105415853Y-96899764D01*
X105477853Y-96659671D01*
X105485562Y-96441736D01*
X105442610Y-96181122D01*
X105346027Y-95952203D01*
X105198183Y-95758680D01*
X105001448Y-95604254D01*
X104920616Y-95559695D01*
X104775149Y-95498724D01*
X104619145Y-95459223D01*
X104440177Y-95439923D01*
X104225816Y-95439554D01*
X103963634Y-95456847D01*
G36*
X104016375Y-90402306D02*
X103207319Y-90445111D01*
X102403004Y-90549563D01*
X101607457Y-90713812D01*
X100824704Y-90936008D01*
X100058772Y-91214302D01*
X99313687Y-91546845D01*
X98593476Y-91931787D01*
X97902165Y-92367279D01*
X97243780Y-92851471D01*
X96622350Y-93382514D01*
X96041898Y-93958558D01*
X95874345Y-94142125D01*
X95324029Y-94805340D01*
X94828991Y-95498071D01*
X94390090Y-96218489D01*
X94008188Y-96964766D01*
X93684144Y-97735074D01*
X93418818Y-98527584D01*
X93213072Y-99340469D01*
X93080794Y-100079375D01*
X93050275Y-100312986D01*
X93022820Y-100567285D01*
X92999255Y-100829884D01*
X92980403Y-101088395D01*
X92967087Y-101330429D01*
X92960131Y-101543598D01*
X92960360Y-101715514D01*
X92965725Y-101809750D01*
X93019399Y-102059965D01*
X93123137Y-102281738D01*
X93269526Y-102469717D01*
X93451157Y-102618551D01*
X93660617Y-102722888D01*
X93890495Y-102777375D01*
X94133382Y-102776661D01*
X94269125Y-102750981D01*
X94441322Y-102695869D01*
X94581140Y-102621764D01*
X94714825Y-102513346D01*
X94771839Y-102457571D01*
X94861255Y-102357732D01*
X94930556Y-102255059D01*
X94982883Y-102138944D01*
X95021375Y-101998777D01*
X95049172Y-101823950D01*
X95069412Y-101603854D01*
X95080992Y-101412875D01*
X95116710Y-100900286D01*
X95169166Y-100431049D01*
X95241356Y-99986522D01*
X95336275Y-99548061D01*
X95448298Y-99126875D01*
X95650376Y-98520702D01*
X95908189Y-97908747D01*
X96216167Y-97301788D01*
X96568744Y-96710604D01*
X96960350Y-96145973D01*
X97047437Y-96031250D01*
X97177051Y-95873651D01*
X97344524Y-95685775D01*
X97539181Y-95478292D01*
X97750352Y-95261876D01*
X97967362Y-95047199D01*
X98179540Y-94844933D01*
X98376213Y-94665753D01*
X98546708Y-94520330D01*
X98603000Y-94475686D01*
X99234952Y-94026237D01*
X99891379Y-93633037D01*
X100569415Y-93297151D01*
X101266191Y-93019646D01*
X101978839Y-92801588D01*
X102704492Y-92644042D01*
X103440281Y-92548075D01*
X103860685Y-92521431D01*
X104138322Y-92507499D01*
X104362405Y-92487900D01*
X104542819Y-92459742D01*
X104689449Y-92420130D01*
X104812180Y-92366173D01*
X104920899Y-92294976D01*
X105025489Y-92203647D01*
X105058568Y-92170847D01*
X105209022Y-91974533D01*
X105304046Y-91747943D01*
X105342724Y-91493357D01*
X105343556Y-91459250D01*
X105327128Y-91227551D01*
X105267701Y-91029744D01*
X105158349Y-90849005D01*
X105035193Y-90710307D01*
X104920032Y-90602395D01*
X104812196Y-90521977D01*
X104699490Y-90465367D01*
X104569718Y-90428878D01*
X104410686Y-90408824D01*
X104210198Y-90401517D01*
X104016375Y-90402306D01*
X104016375Y-90402306D01*
G37*
X104016375Y-90402306D02*
X103207319Y-90445111D01*
X102403004Y-90549563D01*
X101607457Y-90713812D01*
X100824704Y-90936008D01*
X100058772Y-91214302D01*
X99313687Y-91546845D01*
X98593476Y-91931787D01*
X97902165Y-92367279D01*
X97243780Y-92851471D01*
X96622350Y-93382514D01*
X96041898Y-93958558D01*
X95874345Y-94142125D01*
X95324029Y-94805340D01*
X94828991Y-95498071D01*
X94390090Y-96218489D01*
X94008188Y-96964766D01*
X93684144Y-97735074D01*
X93418818Y-98527584D01*
X93213072Y-99340469D01*
X93080794Y-100079375D01*
X93050275Y-100312986D01*
X93022820Y-100567285D01*
X92999255Y-100829884D01*
X92980403Y-101088395D01*
X92967087Y-101330429D01*
X92960131Y-101543598D01*
X92960360Y-101715514D01*
X92965725Y-101809750D01*
X93019399Y-102059965D01*
X93123137Y-102281738D01*
X93269526Y-102469717D01*
X93451157Y-102618551D01*
X93660617Y-102722888D01*
X93890495Y-102777375D01*
X94133382Y-102776661D01*
X94269125Y-102750981D01*
X94441322Y-102695869D01*
X94581140Y-102621764D01*
X94714825Y-102513346D01*
X94771839Y-102457571D01*
X94861255Y-102357732D01*
X94930556Y-102255059D01*
X94982883Y-102138944D01*
X95021375Y-101998777D01*
X95049172Y-101823950D01*
X95069412Y-101603854D01*
X95080992Y-101412875D01*
X95116710Y-100900286D01*
X95169166Y-100431049D01*
X95241356Y-99986522D01*
X95336275Y-99548061D01*
X95448298Y-99126875D01*
X95650376Y-98520702D01*
X95908189Y-97908747D01*
X96216167Y-97301788D01*
X96568744Y-96710604D01*
X96960350Y-96145973D01*
X97047437Y-96031250D01*
X97177051Y-95873651D01*
X97344524Y-95685775D01*
X97539181Y-95478292D01*
X97750352Y-95261876D01*
X97967362Y-95047199D01*
X98179540Y-94844933D01*
X98376213Y-94665753D01*
X98546708Y-94520330D01*
X98603000Y-94475686D01*
X99234952Y-94026237D01*
X99891379Y-93633037D01*
X100569415Y-93297151D01*
X101266191Y-93019646D01*
X101978839Y-92801588D01*
X102704492Y-92644042D01*
X103440281Y-92548075D01*
X103860685Y-92521431D01*
X104138322Y-92507499D01*
X104362405Y-92487900D01*
X104542819Y-92459742D01*
X104689449Y-92420130D01*
X104812180Y-92366173D01*
X104920899Y-92294976D01*
X105025489Y-92203647D01*
X105058568Y-92170847D01*
X105209022Y-91974533D01*
X105304046Y-91747943D01*
X105342724Y-91493357D01*
X105343556Y-91459250D01*
X105327128Y-91227551D01*
X105267701Y-91029744D01*
X105158349Y-90849005D01*
X105035193Y-90710307D01*
X104920032Y-90602395D01*
X104812196Y-90521977D01*
X104699490Y-90465367D01*
X104569718Y-90428878D01*
X104410686Y-90408824D01*
X104210198Y-90401517D01*
X104016375Y-90402306D01*
G36*
X104017352Y-100272376D02*
X103787495Y-100355440D01*
X103572497Y-100491140D01*
X103428342Y-100625890D01*
X103279594Y-100822962D01*
X103185070Y-101034553D01*
X103139823Y-101273896D01*
X103134126Y-101412875D01*
X103151790Y-101658783D01*
X103209376Y-101867268D01*
X103313781Y-102055137D01*
X103471899Y-102239202D01*
X103473847Y-102241153D01*
X103622395Y-102374538D01*
X103760769Y-102463789D01*
X103845355Y-102501024D01*
X104046733Y-102557503D01*
X104259969Y-102585715D01*
X104458317Y-102582910D01*
X104531688Y-102571625D01*
X104785476Y-102488148D01*
X105007791Y-102354917D01*
X105193268Y-102179687D01*
X105336538Y-101970213D01*
X105432237Y-101734249D01*
X105474996Y-101479552D01*
X105461753Y-101227661D01*
X105391836Y-100972162D01*
X105274820Y-100750961D01*
X105118450Y-100566350D01*
X104930471Y-100420622D01*
X104718626Y-100316069D01*
X104490662Y-100254982D01*
X104254322Y-100239654D01*
X104017352Y-100272376D01*
X104017352Y-100272376D01*
G37*
X104017352Y-100272376D02*
X103787495Y-100355440D01*
X103572497Y-100491140D01*
X103428342Y-100625890D01*
X103279594Y-100822962D01*
X103185070Y-101034553D01*
X103139823Y-101273896D01*
X103134126Y-101412875D01*
X103151790Y-101658783D01*
X103209376Y-101867268D01*
X103313781Y-102055137D01*
X103471899Y-102239202D01*
X103473847Y-102241153D01*
X103622395Y-102374538D01*
X103760769Y-102463789D01*
X103845355Y-102501024D01*
X104046733Y-102557503D01*
X104259969Y-102585715D01*
X104458317Y-102582910D01*
X104531688Y-102571625D01*
X104785476Y-102488148D01*
X105007791Y-102354917D01*
X105193268Y-102179687D01*
X105336538Y-101970213D01*
X105432237Y-101734249D01*
X105474996Y-101479552D01*
X105461753Y-101227661D01*
X105391836Y-100972162D01*
X105274820Y-100750961D01*
X105118450Y-100566350D01*
X104930471Y-100420622D01*
X104718626Y-100316069D01*
X104490662Y-100254982D01*
X104254322Y-100239654D01*
X104017352Y-100272376D01*
D11*
X107937333Y-120470762D02*
X107794476Y-120518381D01*
X107556380Y-120518381D01*
X107461142Y-120470762D01*
X107413523Y-120423143D01*
X107365904Y-120327905D01*
X107365904Y-120232667D01*
X107413523Y-120137429D01*
X107461142Y-120089810D01*
X107556380Y-120042190D01*
X107746857Y-119994571D01*
X107842095Y-119946952D01*
X107889714Y-119899333D01*
X107937333Y-119804095D01*
X107937333Y-119708857D01*
X107889714Y-119613619D01*
X107842095Y-119566000D01*
X107746857Y-119518381D01*
X107508761Y-119518381D01*
X107365904Y-119566000D01*
X107032571Y-119518381D02*
X106794476Y-120518381D01*
X106603999Y-119804095D01*
X106413523Y-120518381D01*
X106175428Y-119518381D01*
X105270666Y-120518381D02*
X105842095Y-120518381D01*
X105556381Y-120518381D02*
X105556381Y-119518381D01*
X105651619Y-119661238D01*
X105746857Y-119756476D01*
X105842095Y-119804095D01*
X111151904Y-115676571D02*
X111009047Y-115724190D01*
X110961428Y-115771810D01*
X110913809Y-115867048D01*
X110913809Y-116009905D01*
X110961428Y-116105143D01*
X111009047Y-116152762D01*
X111104285Y-116200381D01*
X111485238Y-116200381D01*
X111485238Y-115200381D01*
X111151904Y-115200381D01*
X111056666Y-115248000D01*
X111009047Y-115295619D01*
X110961428Y-115390857D01*
X110961428Y-115486095D01*
X111009047Y-115581333D01*
X111056666Y-115628952D01*
X111151904Y-115676571D01*
X111485238Y-115676571D01*
X110485238Y-115200381D02*
X110485238Y-116009905D01*
X110437619Y-116105143D01*
X110390000Y-116152762D01*
X110294762Y-116200381D01*
X110104285Y-116200381D01*
X110009047Y-116152762D01*
X109961428Y-116105143D01*
X109913809Y-116009905D01*
X109913809Y-115200381D01*
X109580476Y-115200381D02*
X109009047Y-115200381D01*
X109294762Y-116200381D02*
X109294762Y-115200381D01*
X108818571Y-115200381D02*
X108247142Y-115200381D01*
X108532857Y-116200381D02*
X108532857Y-115200381D01*
X107723333Y-115200381D02*
X107532856Y-115200381D01*
X107437618Y-115248000D01*
X107342380Y-115343238D01*
X107294761Y-115533714D01*
X107294761Y-115867048D01*
X107342380Y-116057524D01*
X107437618Y-116152762D01*
X107532856Y-116200381D01*
X107723333Y-116200381D01*
X107818571Y-116152762D01*
X107913809Y-116057524D01*
X107961428Y-115867048D01*
X107961428Y-115533714D01*
X107913809Y-115343238D01*
X107818571Y-115248000D01*
X107723333Y-115200381D01*
X106866190Y-116200381D02*
X106866190Y-115200381D01*
X106294761Y-116200381D01*
X106294761Y-115200381D01*
X97436095Y-114422381D02*
X97436095Y-113422381D01*
X97055142Y-113422381D01*
X96959904Y-113470000D01*
X96912285Y-113517619D01*
X96864666Y-113612857D01*
X96864666Y-113755714D01*
X96912285Y-113850952D01*
X96959904Y-113898571D01*
X97055142Y-113946190D01*
X97436095Y-113946190D01*
X96007523Y-113755714D02*
X96007523Y-114422381D01*
X96245619Y-113374762D02*
X96483714Y-114089048D01*
X95864666Y-114089048D01*
X94459143Y-119264381D02*
X94459143Y-120073905D01*
X94411524Y-120169143D01*
X94363905Y-120216762D01*
X94268667Y-120264381D01*
X94078190Y-120264381D01*
X93982952Y-120216762D01*
X93935333Y-120169143D01*
X93887714Y-120073905D01*
X93887714Y-119264381D01*
X93459143Y-120216762D02*
X93316286Y-120264381D01*
X93078190Y-120264381D01*
X92982952Y-120216762D01*
X92935333Y-120169143D01*
X92887714Y-120073905D01*
X92887714Y-119978667D01*
X92935333Y-119883429D01*
X92982952Y-119835810D01*
X93078190Y-119788190D01*
X93268667Y-119740571D01*
X93363905Y-119692952D01*
X93411524Y-119645333D01*
X93459143Y-119550095D01*
X93459143Y-119454857D01*
X93411524Y-119359619D01*
X93363905Y-119312000D01*
X93268667Y-119264381D01*
X93030571Y-119264381D01*
X92887714Y-119312000D01*
X92125809Y-119740571D02*
X91982952Y-119788190D01*
X91935333Y-119835810D01*
X91887714Y-119931048D01*
X91887714Y-120073905D01*
X91935333Y-120169143D01*
X91982952Y-120216762D01*
X92078190Y-120264381D01*
X92459143Y-120264381D01*
X92459143Y-119264381D01*
X92125809Y-119264381D01*
X92030571Y-119312000D01*
X91982952Y-119359619D01*
X91935333Y-119454857D01*
X91935333Y-119550095D01*
X91982952Y-119645333D01*
X92030571Y-119692952D01*
X92125809Y-119740571D01*
X92459143Y-119740571D01*
X91697238Y-120359619D02*
X90935333Y-120359619D01*
X90697238Y-120264381D02*
X90697238Y-119264381D01*
X90316285Y-119264381D01*
X90221047Y-119312000D01*
X90173428Y-119359619D01*
X90125809Y-119454857D01*
X90125809Y-119597714D01*
X90173428Y-119692952D01*
X90221047Y-119740571D01*
X90316285Y-119788190D01*
X90697238Y-119788190D01*
X89554381Y-120264381D02*
X89649619Y-120216762D01*
X89697238Y-120169143D01*
X89744857Y-120073905D01*
X89744857Y-119788190D01*
X89697238Y-119692952D01*
X89649619Y-119645333D01*
X89554381Y-119597714D01*
X89411523Y-119597714D01*
X89316285Y-119645333D01*
X89268666Y-119692952D01*
X89221047Y-119788190D01*
X89221047Y-120073905D01*
X89268666Y-120169143D01*
X89316285Y-120216762D01*
X89411523Y-120264381D01*
X89554381Y-120264381D01*
X88887714Y-119597714D02*
X88697238Y-120264381D01*
X88506761Y-119788190D01*
X88316285Y-120264381D01*
X88125809Y-119597714D01*
X87363904Y-120216762D02*
X87459142Y-120264381D01*
X87649619Y-120264381D01*
X87744857Y-120216762D01*
X87792476Y-120121524D01*
X87792476Y-119740571D01*
X87744857Y-119645333D01*
X87649619Y-119597714D01*
X87459142Y-119597714D01*
X87363904Y-119645333D01*
X87316285Y-119740571D01*
X87316285Y-119835810D01*
X87792476Y-119931048D01*
X86887714Y-120264381D02*
X86887714Y-119597714D01*
X86887714Y-119788190D02*
X86840095Y-119692952D01*
X86792476Y-119645333D01*
X86697238Y-119597714D01*
X86601999Y-119597714D01*
%LPC*%
D13*
X86000000Y-86000000D03*
D14*
X102540000Y-80315000D03*
X100000000Y-80315000D03*
X97460000Y-80315000D03*
D15*
X113970000Y-91110000D03*
D16*
X113970000Y-93650000D03*
D15*
X86030000Y-91110000D03*
D16*
X86030000Y-93650000D03*
D15*
X106350000Y-86030000D03*
D16*
X108890000Y-86030000D03*
D15*
X93650000Y-86030000D03*
D16*
X91110000Y-86030000D03*
D17*
X112870000Y-117340000D03*
X108720000Y-117340000D03*
X108720000Y-119490000D03*
X112870000Y-119490000D03*
D18*
X96300000Y-119304000D03*
X103700000Y-119304000D03*
D19*
X98800000Y-113304000D03*
X101200000Y-113304000D03*
D13*
X114000000Y-86000000D03*
X114000000Y-114000000D03*
X86000000Y-114000000D03*
M02*
